<svg width="350" height="259" viewBox="0 0 350 259" fill="none" xmlns="http://www.w3.org/2000/svg">
<g filter="url(#filter0_b_2986_203399)">
<path d="M1 17C1 8.16344 8.16344 1 17 1H333C341.837 1 349 8.16344 349 17V332C349 340.837 341.837 348 333 348H17C8.16344 348 1 340.837 1 332V17Z" fill="url(#paint0_linear_2986_203399)" fill-opacity="0.16"/>
<path d="M333 0.5H17C7.8873 0.5 0.5 7.8873 0.5 17V332C0.5 341.113 7.8873 348.5 17 348.5H333C342.113 348.5 349.5 341.113 349.5 332V17C349.5 7.8873 342.113 0.5 333 0.5Z" stroke="white"/>
<path d="M29.32 30.4H31.464L35.816 42H33.592L32.68 39.424H27.976L27.08 42H25L29.32 30.4ZM28.568 37.728H32.072L30.312 32.752L28.568 37.728ZM42.4704 30.4H44.3744V42H42.4704V40.864C42.2144 41.2907 41.8677 41.6213 41.4304 41.856C40.993 42.0907 40.4864 42.208 39.9104 42.208C39.3877 42.208 38.897 42.1067 38.4384 41.904C37.9904 41.6907 37.601 41.3867 37.2704 40.992C36.9397 40.5973 36.6784 40.1227 36.4864 39.568C36.305 39.0133 36.2144 38.3893 36.2144 37.696C36.2144 37.0133 36.305 36.3947 36.4864 35.84C36.6784 35.2853 36.9397 34.8107 37.2704 34.416C37.601 34.0213 37.9904 33.7227 38.4384 33.52C38.897 33.3067 39.3877 33.2 39.9104 33.2C40.4864 33.2 40.993 33.3173 41.4304 33.552C41.8677 33.7867 42.2144 34.1173 42.4704 34.544V30.4ZM42.5504 37.696C42.5504 37.2053 42.4917 36.7733 42.3744 36.4C42.257 36.0267 42.097 35.7227 41.8944 35.488C41.7024 35.2427 41.4677 35.0613 41.1904 34.944C40.9237 34.816 40.6357 34.752 40.3264 34.752C39.6544 34.752 39.1317 35.0187 38.7584 35.552C38.385 36.0747 38.1984 36.7893 38.1984 37.696C38.1984 38.6133 38.385 39.3387 38.7584 39.872C39.1317 40.3947 39.6544 40.656 40.3264 40.656C40.6357 40.656 40.9237 40.5973 41.1904 40.48C41.4677 40.352 41.7024 40.1653 41.8944 39.92C42.097 39.6747 42.257 39.3707 42.3744 39.008C42.4917 38.6347 42.5504 38.1973 42.5504 37.696ZM49.5331 39.536L51.5011 33.392H53.4851L50.3811 42H48.5891L45.4531 33.392H47.5491L49.5331 39.536ZM59.4781 37.952C58.7955 38.016 58.2141 38.0907 57.7341 38.176C57.2541 38.2613 56.8595 38.368 56.5501 38.496C56.2408 38.624 56.0115 38.7787 55.8621 38.96C55.7235 39.1307 55.6541 39.3387 55.6541 39.584C55.6541 39.9573 55.7981 40.2507 56.0861 40.464C56.3741 40.6773 56.7581 40.784 57.2381 40.784C57.9421 40.784 58.4915 40.592 58.8861 40.208C59.2808 39.8133 59.4781 39.1627 59.4781 38.256V37.952ZM57.6701 33.136C58.2035 33.136 58.6941 33.2 59.1421 33.328C59.6008 33.456 59.9955 33.664 60.3261 33.952C60.6568 34.24 60.9075 34.6187 61.0781 35.088C61.2595 35.5573 61.3448 36.1333 61.3341 36.816C61.3341 36.9227 61.3288 37.0667 61.3181 37.248C61.3181 37.4187 61.3181 37.6053 61.3181 37.808C61.3181 38.0107 61.3128 38.224 61.3021 38.448C61.3021 38.6613 61.3021 38.864 61.3021 39.056C61.3021 39.6 61.3235 40.1387 61.3661 40.672C61.4088 41.1947 61.4728 41.6373 61.5581 42H59.8141C59.7821 41.8187 59.7501 41.6427 59.7181 41.472C59.6968 41.3013 59.6755 41.0667 59.6541 40.768C59.3875 41.248 59.0088 41.6107 58.5181 41.856C58.0275 42.0907 57.4621 42.208 56.8221 42.208C56.3528 42.208 55.9208 42.144 55.5261 42.016C55.1421 41.8987 54.8061 41.728 54.5181 41.504C54.2408 41.28 54.0221 41.0133 53.8621 40.704C53.7128 40.384 53.6381 40.0267 53.6381 39.632C53.6381 39.0987 53.7928 38.656 54.1021 38.304C54.4115 37.952 54.8275 37.664 55.3501 37.44C55.8835 37.216 56.4968 37.0453 57.1901 36.928C57.8941 36.8107 58.6408 36.7093 59.4301 36.624V36.416C59.4301 36.0533 59.3821 35.7547 59.2861 35.52C59.1901 35.2747 59.0568 35.0827 58.8861 34.944C58.7261 34.7947 58.5341 34.6933 58.3101 34.64C58.0861 34.576 57.8408 34.544 57.5741 34.544C57.0835 34.544 56.6728 34.672 56.3421 34.928C56.0115 35.184 55.8355 35.5733 55.8141 36.096H53.9421C53.9741 35.6587 54.0861 35.2587 54.2781 34.896C54.4701 34.5333 54.7261 34.224 55.0461 33.968C55.3768 33.7013 55.7608 33.4987 56.1981 33.36C56.6461 33.2107 57.1368 33.136 57.6701 33.136ZM65.1635 34.592C65.4088 34.144 65.7502 33.8027 66.1875 33.568C66.6355 33.3227 67.1635 33.2 67.7715 33.2C68.2942 33.2 68.7368 33.28 69.0995 33.44C69.4728 33.6 69.7768 33.8293 70.0115 34.128C70.2462 34.4267 70.4168 34.784 70.5235 35.2C70.6408 35.616 70.6995 36.08 70.6995 36.592V42H68.7955V37.056C68.7955 36.768 68.7795 36.4853 68.7475 36.208C68.7155 35.9307 68.6408 35.6853 68.5235 35.472C68.4168 35.248 68.2515 35.072 68.0275 34.944C67.8142 34.816 67.5262 34.752 67.1635 34.752C66.8008 34.752 66.4915 34.8213 66.2355 34.96C65.9795 35.088 65.7715 35.2693 65.6115 35.504C65.4515 35.7387 65.3342 36.0213 65.2595 36.352C65.1955 36.6827 65.1635 37.04 65.1635 37.424V42H63.2595V33.392H65.1635V34.592ZM76.2814 33.2C76.7614 33.2 77.2147 33.2747 77.6414 33.424C78.068 33.5733 78.4467 33.7867 78.7774 34.064C79.1187 34.3307 79.4014 34.656 79.6254 35.04C79.8494 35.424 80.004 35.856 80.0894 36.336H78.2334C78.148 35.8773 77.9347 35.504 77.5934 35.216C77.2627 34.928 76.8094 34.784 76.2334 34.784C75.9347 34.784 75.652 34.8427 75.3854 34.96C75.1294 35.0667 74.9 35.2427 74.6974 35.488C74.5054 35.7227 74.3507 36.0213 74.2334 36.384C74.1267 36.7467 74.0734 37.184 74.0734 37.696C74.0734 38.208 74.1267 38.6507 74.2334 39.024C74.3507 39.3867 74.5054 39.6907 74.6974 39.936C74.9 40.1707 75.1294 40.3467 75.3854 40.464C75.652 40.5707 75.9347 40.624 76.2334 40.624C76.7134 40.624 77.1454 40.5067 77.5294 40.272C77.924 40.0373 78.18 39.632 78.2974 39.056H80.1534C80.0574 39.5573 79.8867 40.0053 79.6414 40.4C79.396 40.7947 79.0974 41.1253 78.7454 41.392C78.3934 41.6587 77.9987 41.8613 77.5614 42C77.124 42.1387 76.6707 42.208 76.2014 42.208C75.5614 42.208 74.9854 42.096 74.4734 41.872C73.972 41.6373 73.5454 41.3227 73.1934 40.928C72.8414 40.5227 72.5694 40.048 72.3774 39.504C72.196 38.9493 72.1054 38.352 72.1054 37.712C72.1054 37.072 72.196 36.48 72.3774 35.936C72.5694 35.3813 72.8467 34.9013 73.2094 34.496C73.572 34.0907 74.0094 33.776 74.5214 33.552C75.0334 33.3173 75.62 33.2 76.2814 33.2ZM85.3781 42.208C84.6741 42.208 84.0501 42.0853 83.5061 41.84C82.9728 41.5947 82.5248 41.264 82.1621 40.848C81.8101 40.432 81.5381 39.9467 81.3461 39.392C81.1648 38.8373 81.0741 38.2507 81.0741 37.632C81.0741 36.9813 81.1755 36.3893 81.3781 35.856C81.5808 35.312 81.8635 34.8427 82.2261 34.448C82.5888 34.0533 83.0261 33.7493 83.5381 33.536C84.0501 33.312 84.6208 33.2 85.2501 33.2C85.9221 33.2 86.5195 33.328 87.0421 33.584C87.5648 33.84 88.0021 34.192 88.3541 34.64C88.7061 35.088 88.9675 35.6213 89.1381 36.24C89.3088 36.848 89.3728 37.5147 89.3301 38.24H83.0101C83.0208 38.5813 83.0848 38.9013 83.2021 39.2C83.3301 39.488 83.4955 39.7387 83.6981 39.952C83.9008 40.1653 84.1355 40.3307 84.4021 40.448C84.6795 40.5653 84.9781 40.624 85.2981 40.624C86.3328 40.624 87.0208 40.224 87.3621 39.424H89.2341C89.1381 39.7653 88.9888 40.1067 88.7861 40.448C88.5835 40.7787 88.3221 41.0773 88.0021 41.344C87.6928 41.6 87.3195 41.808 86.8821 41.968C86.4448 42.128 85.9435 42.208 85.3781 42.208ZM85.2501 34.688C84.9835 34.688 84.7168 34.7307 84.4501 34.816C84.1941 34.9013 83.9595 35.0347 83.7461 35.216C83.5435 35.3867 83.3728 35.6107 83.2341 35.888C83.0955 36.1547 83.0208 36.4747 83.0101 36.848H87.3941C87.3835 36.5173 87.3195 36.2187 87.2021 35.952C87.0848 35.6747 86.9301 35.4453 86.7381 35.264C86.5461 35.0827 86.3221 34.944 86.0661 34.848C85.8101 34.7413 85.5381 34.688 85.2501 34.688ZM102.235 36.192C102.235 35.2747 102.107 34.544 101.851 34C101.595 33.4453 101.254 33.024 100.827 32.736C100.411 32.448 99.9366 32.2613 99.4033 32.176C98.8699 32.08 98.3259 32.032 97.7713 32.032H96.7313V40.368H97.7713C98.3259 40.368 98.8699 40.3253 99.4033 40.24C99.9366 40.144 100.411 39.952 100.827 39.664C101.254 39.3653 101.595 38.944 101.851 38.4C102.107 37.8453 102.235 37.1093 102.235 36.192ZM97.8673 30.4C98.7846 30.4 99.6379 30.4907 100.427 30.672C101.217 30.8533 101.899 31.1627 102.475 31.6C103.062 32.0373 103.521 32.6293 103.851 33.376C104.182 34.1227 104.347 35.0613 104.347 36.192C104.347 37.3227 104.182 38.2613 103.851 39.008C103.521 39.7547 103.062 40.352 102.475 40.8C101.899 41.2373 101.217 41.5467 100.427 41.728C99.6379 41.9093 98.7846 42 97.8673 42H94.6993V30.4H97.8673ZM109.988 42.208C109.284 42.208 108.66 42.0853 108.116 41.84C107.582 41.5947 107.134 41.264 106.772 40.848C106.42 40.432 106.147 39.9467 105.956 39.392C105.774 38.8373 105.684 38.2507 105.684 37.632C105.684 36.9813 105.785 36.3893 105.988 35.856C106.19 35.312 106.473 34.8427 106.836 34.448C107.198 34.0533 107.636 33.7493 108.148 33.536C108.66 33.312 109.23 33.2 109.86 33.2C110.532 33.2 111.129 33.328 111.652 33.584C112.174 33.84 112.612 34.192 112.964 34.64C113.316 35.088 113.577 35.6213 113.748 36.24C113.918 36.848 113.982 37.5147 113.94 38.24H107.62C107.63 38.5813 107.694 38.9013 107.812 39.2C107.94 39.488 108.105 39.7387 108.308 39.952C108.51 40.1653 108.745 40.3307 109.012 40.448C109.289 40.5653 109.588 40.624 109.908 40.624C110.942 40.624 111.63 40.224 111.972 39.424H113.844C113.748 39.7653 113.598 40.1067 113.396 40.448C113.193 40.7787 112.932 41.0773 112.612 41.344C112.302 41.6 111.929 41.808 111.492 41.968C111.054 42.128 110.553 42.208 109.988 42.208ZM109.86 34.688C109.593 34.688 109.326 34.7307 109.06 34.816C108.804 34.9013 108.569 35.0347 108.356 35.216C108.153 35.3867 107.982 35.6107 107.844 35.888C107.705 36.1547 107.63 36.4747 107.62 36.848H112.004C111.993 36.5173 111.929 36.2187 111.812 35.952C111.694 35.6747 111.54 35.4453 111.348 35.264C111.156 35.0827 110.932 34.944 110.676 34.848C110.42 34.7413 110.148 34.688 109.86 34.688ZM115.797 31.12H117.701V33.392H119.429V34.768H117.701V39.456C117.701 39.8933 117.77 40.1867 117.909 40.336C118.048 40.4747 118.32 40.544 118.725 40.544H119.413V42H118.005C117.546 42 117.173 41.968 116.885 41.904C116.597 41.8293 116.373 41.7067 116.213 41.536C116.053 41.3653 115.941 41.136 115.877 40.848C115.824 40.5493 115.797 40.1813 115.797 39.744V34.768H114.517V33.392H115.797V31.12ZM126.291 37.952C125.608 38.016 125.027 38.0907 124.547 38.176C124.067 38.2613 123.672 38.368 123.363 38.496C123.053 38.624 122.824 38.7787 122.675 38.96C122.536 39.1307 122.467 39.3387 122.467 39.584C122.467 39.9573 122.611 40.2507 122.899 40.464C123.187 40.6773 123.571 40.784 124.051 40.784C124.755 40.784 125.304 40.592 125.699 40.208C126.093 39.8133 126.291 39.1627 126.291 38.256V37.952ZM124.483 33.136C125.016 33.136 125.507 33.2 125.955 33.328C126.413 33.456 126.808 33.664 127.139 33.952C127.469 34.24 127.72 34.6187 127.891 35.088C128.072 35.5573 128.157 36.1333 128.147 36.816C128.147 36.9227 128.141 37.0667 128.131 37.248C128.131 37.4187 128.131 37.6053 128.131 37.808C128.131 38.0107 128.125 38.224 128.115 38.448C128.115 38.6613 128.115 38.864 128.115 39.056C128.115 39.6 128.136 40.1387 128.179 40.672C128.221 41.1947 128.285 41.6373 128.371 42H126.627C126.595 41.8187 126.563 41.6427 126.531 41.472C126.509 41.3013 126.488 41.0667 126.467 40.768C126.2 41.248 125.821 41.6107 125.331 41.856C124.84 42.0907 124.275 42.208 123.635 42.208C123.165 42.208 122.733 42.144 122.339 42.016C121.955 41.8987 121.619 41.728 121.331 41.504C121.053 41.28 120.835 41.0133 120.675 40.704C120.525 40.384 120.451 40.0267 120.451 39.632C120.451 39.0987 120.605 38.656 120.915 38.304C121.224 37.952 121.64 37.664 122.163 37.44C122.696 37.216 123.309 37.0453 124.003 36.928C124.707 36.8107 125.453 36.7093 126.243 36.624V36.416C126.243 36.0533 126.195 35.7547 126.099 35.52C126.003 35.2747 125.869 35.0827 125.699 34.944C125.539 34.7947 125.347 34.6933 125.123 34.64C124.899 34.576 124.653 34.544 124.387 34.544C123.896 34.544 123.485 34.672 123.155 34.928C122.824 35.184 122.648 35.5733 122.627 36.096H120.755C120.787 35.6587 120.899 35.2587 121.091 34.896C121.283 34.5333 121.539 34.224 121.859 33.968C122.189 33.7013 122.573 33.4987 123.011 33.36C123.459 33.2107 123.949 33.136 124.483 33.136ZM131.976 30.4V32.32H130.072V30.4H131.976ZM131.976 33.392V42H130.072V33.392H131.976ZM136.023 42H134.119V30.4H136.023V42ZM143.174 35.808C143.078 35.4027 142.854 35.1093 142.502 34.928C142.15 34.7467 141.702 34.656 141.158 34.656C140.72 34.656 140.342 34.7413 140.022 34.912C139.712 35.072 139.558 35.296 139.558 35.584C139.558 36.1173 139.974 36.4693 140.806 36.64L141.974 36.88C142.4 36.976 142.8 37.088 143.174 37.216C143.558 37.3333 143.888 37.488 144.166 37.68C144.443 37.872 144.662 38.112 144.822 38.4C144.982 38.6773 145.062 39.024 145.062 39.44C145.062 39.888 144.96 40.288 144.758 40.64C144.566 40.9813 144.299 41.2693 143.958 41.504C143.627 41.728 143.238 41.8987 142.79 42.016C142.352 42.144 141.883 42.208 141.382 42.208C140.827 42.208 140.32 42.1333 139.862 41.984C139.414 41.8347 139.024 41.632 138.694 41.376C138.374 41.12 138.112 40.816 137.91 40.464C137.718 40.112 137.6 39.728 137.558 39.312H139.414C139.499 39.7707 139.707 40.128 140.038 40.384C140.368 40.64 140.838 40.768 141.446 40.768C141.979 40.768 142.406 40.672 142.726 40.48C143.046 40.2773 143.206 40.0053 143.206 39.664C143.206 39.3227 143.062 39.0613 142.774 38.88C142.496 38.6987 142.128 38.56 141.67 38.464L140.374 38.192C140 38.1173 139.654 38.0213 139.334 37.904C139.014 37.776 138.736 37.616 138.502 37.424C138.278 37.2213 138.096 36.9813 137.958 36.704C137.83 36.416 137.766 36.0747 137.766 35.68C137.766 35.296 137.856 34.9547 138.038 34.656C138.23 34.3467 138.486 34.0853 138.806 33.872C139.126 33.6587 139.499 33.4933 139.926 33.376C140.352 33.2587 140.806 33.2 141.286 33.2C141.734 33.2 142.16 33.2533 142.566 33.36C142.971 33.4667 143.334 33.632 143.654 33.856C143.984 34.0693 144.262 34.3413 144.486 34.672C144.72 34.992 144.88 35.3707 144.966 35.808H143.174Z" fill="white"/>
<path d="M269 37C269 32.5817 272.582 29 277 29H317C321.418 29 325 32.5817 325 37V37C325 41.4183 321.418 45 317 45H277C272.582 45 269 41.4183 269 37V37Z" fill="url(#paint1_linear_2986_203399)" fill-opacity="0.16"/>
<path d="M276.88 40H275.86V32.75H276.88V40ZM279.374 35.43C279.527 35.1767 279.741 34.9633 280.014 34.79C280.294 34.6167 280.661 34.53 281.114 34.53C281.441 34.53 281.714 34.58 281.934 34.68C282.161 34.78 282.344 34.9233 282.484 35.11C282.624 35.29 282.724 35.5067 282.784 35.76C282.851 36.0133 282.884 36.2933 282.884 36.6V40H281.974V36.87C281.974 36.6633 281.961 36.4667 281.934 36.28C281.907 36.0933 281.854 35.93 281.774 35.79C281.694 35.6433 281.574 35.53 281.414 35.45C281.261 35.3633 281.054 35.32 280.794 35.32C280.354 35.32 280.007 35.47 279.754 35.77C279.501 36.0633 279.374 36.5 279.374 37.08V40H278.464V34.62H279.374V35.43ZM289.608 36.94C289.515 36.9467 289.422 36.95 289.328 36.95C289.242 36.95 289.152 36.95 289.058 36.95H287.778V40H286.758V32.75H289.058C289.498 32.75 289.902 32.7767 290.268 32.83C290.642 32.8833 290.962 32.9867 291.228 33.14C291.495 33.2933 291.702 33.5067 291.848 33.78C292.002 34.0533 292.078 34.4067 292.078 34.84C292.078 35.4133 291.948 35.85 291.688 36.15C291.435 36.45 291.085 36.66 290.638 36.78L292.318 40H291.178L289.608 36.94ZM287.778 33.61V36.09H289.138C289.405 36.09 289.652 36.08 289.878 36.06C290.112 36.0333 290.312 35.98 290.478 35.9C290.652 35.8133 290.785 35.69 290.878 35.53C290.978 35.3633 291.028 35.14 291.028 34.86C291.028 34.58 290.978 34.3567 290.878 34.19C290.785 34.0233 290.652 33.9 290.478 33.82C290.312 33.7333 290.112 33.6767 289.878 33.65C289.652 33.6233 289.405 33.61 289.138 33.61H287.778ZM295.597 40.13C295.163 40.13 294.783 40.06 294.457 39.92C294.137 39.7733 293.867 39.5733 293.647 39.32C293.427 39.0667 293.26 38.77 293.147 38.43C293.04 38.09 292.987 37.72 292.987 37.32C292.987 36.8933 293.05 36.51 293.177 36.17C293.31 35.8233 293.49 35.53 293.717 35.29C293.95 35.0433 294.223 34.8567 294.537 34.73C294.85 34.5967 295.193 34.53 295.567 34.53C295.98 34.53 296.347 34.61 296.667 34.77C296.993 34.93 297.263 35.15 297.477 35.43C297.69 35.71 297.843 36.0367 297.937 36.41C298.037 36.7833 298.073 37.1833 298.047 37.61H293.977C293.977 37.8767 294.017 38.1167 294.097 38.33C294.183 38.5433 294.3 38.7233 294.447 38.87C294.593 39.0167 294.763 39.13 294.957 39.21C295.15 39.29 295.357 39.33 295.577 39.33C295.997 39.33 296.317 39.25 296.537 39.09C296.757 38.9233 296.923 38.7067 297.037 38.44H297.977C297.917 38.6733 297.82 38.8933 297.687 39.1C297.553 39.3 297.387 39.4767 297.187 39.63C296.993 39.7833 296.763 39.9067 296.497 40C296.23 40.0867 295.93 40.13 295.597 40.13ZM295.567 35.31C295.107 35.31 294.733 35.4433 294.447 35.71C294.16 35.97 294.007 36.3433 293.987 36.83H297.087C297.08 36.6433 297.043 36.46 296.977 36.28C296.91 36.0933 296.813 35.93 296.687 35.79C296.56 35.6433 296.403 35.5267 296.217 35.44C296.03 35.3533 295.813 35.31 295.567 35.31ZM300.82 38.74L302.28 34.62H303.22L301.19 40H300.38L298.35 34.62H299.36L300.82 38.74ZM304.853 34.62V40H303.943V34.62H304.853ZM304.853 32.75V33.85H303.943V32.75H304.853ZM308.536 40.13C308.103 40.13 307.723 40.06 307.396 39.92C307.076 39.7733 306.806 39.5733 306.586 39.32C306.366 39.0667 306.2 38.77 306.086 38.43C305.98 38.09 305.926 37.72 305.926 37.32C305.926 36.8933 305.99 36.51 306.116 36.17C306.25 35.8233 306.43 35.53 306.656 35.29C306.89 35.0433 307.163 34.8567 307.476 34.73C307.79 34.5967 308.133 34.53 308.506 34.53C308.92 34.53 309.286 34.61 309.606 34.77C309.933 34.93 310.203 35.15 310.416 35.43C310.63 35.71 310.783 36.0367 310.876 36.41C310.976 36.7833 311.013 37.1833 310.986 37.61H306.916C306.916 37.8767 306.956 38.1167 307.036 38.33C307.123 38.5433 307.24 38.7233 307.386 38.87C307.533 39.0167 307.703 39.13 307.896 39.21C308.09 39.29 308.296 39.33 308.516 39.33C308.936 39.33 309.256 39.25 309.476 39.09C309.696 38.9233 309.863 38.7067 309.976 38.44H310.916C310.856 38.6733 310.76 38.8933 310.626 39.1C310.493 39.3 310.326 39.4767 310.126 39.63C309.933 39.7833 309.703 39.9067 309.436 40C309.17 40.0867 308.87 40.13 308.536 40.13ZM308.506 35.31C308.046 35.31 307.673 35.4433 307.386 35.71C307.1 35.97 306.946 36.3433 306.926 36.83H310.026C310.02 36.6433 309.983 36.46 309.916 36.28C309.85 36.0933 309.753 35.93 309.626 35.79C309.5 35.6433 309.343 35.5267 309.156 35.44C308.97 35.3533 308.753 35.31 308.506 35.31ZM314.439 34.62H315.379L316.449 38.6L317.479 34.62H318.459L316.909 40H316.079L314.889 35.67L313.739 40H312.909L311.359 34.62H312.339L313.369 38.6L314.439 34.62Z" fill="white"/>
<path d="M35.56 102.08V104.416C36.6693 104.523 37.6827 104.779 38.6 105.184C39.5173 105.589 40.296 106.123 40.936 106.784C41.5973 107.424 42.0987 108.192 42.44 109.088C42.7813 109.963 42.952 110.923 42.952 111.968H39.176C39.1547 110.517 38.792 109.419 38.088 108.672C37.384 107.925 36.5413 107.467 35.56 107.296V114.528L35.912 114.592C36.7653 114.805 37.6293 115.072 38.504 115.392C39.4 115.691 40.2107 116.107 40.936 116.64C41.6613 117.152 42.248 117.803 42.696 118.592C43.144 119.36 43.368 120.32 43.368 121.472C43.368 122.56 43.1547 123.52 42.728 124.352C42.3013 125.184 41.7253 125.888 41 126.464C40.296 127.04 39.4747 127.488 38.536 127.808C37.5973 128.128 36.6053 128.32 35.56 128.384V131.072H33.768V128.384C32.616 128.299 31.56 128.043 30.6 127.616C29.6613 127.189 28.8507 126.635 28.168 125.952C27.5067 125.248 26.984 124.427 26.6 123.488C26.2373 122.549 26.0667 121.525 26.088 120.416H29.864C29.864 121.205 29.9707 121.909 30.184 122.528C30.3973 123.125 30.6853 123.637 31.048 124.064C31.4107 124.469 31.8267 124.789 32.296 125.024C32.7653 125.259 33.256 125.408 33.768 125.472V117.632L32.744 117.376C31.912 117.163 31.1227 116.885 30.376 116.544C29.6293 116.181 28.968 115.733 28.392 115.2C27.816 114.667 27.3573 114.037 27.016 113.312C26.696 112.587 26.536 111.733 26.536 110.752C26.536 109.728 26.7387 108.843 27.144 108.096C27.5707 107.328 28.1147 106.688 28.776 106.176C29.4587 105.643 30.2373 105.237 31.112 104.96C31.9867 104.661 32.872 104.48 33.768 104.416V102.08H35.56ZM39.688 121.792C39.688 121.237 39.592 120.768 39.4 120.384C39.208 120 38.9307 119.669 38.568 119.392C38.2267 119.115 37.8 118.88 37.288 118.688C36.776 118.475 36.2 118.272 35.56 118.08V125.504C36.1147 125.483 36.6373 125.387 37.128 125.216C37.64 125.045 38.0773 124.811 38.44 124.512C38.824 124.192 39.1227 123.808 39.336 123.36C39.5707 122.912 39.688 122.389 39.688 121.792ZM30.216 110.624C30.216 111.52 30.5147 112.256 31.112 112.832C31.7093 113.408 32.52 113.813 33.544 114.048L33.768 114.112V107.232C33.32 107.253 32.8827 107.339 32.456 107.488C32.0293 107.637 31.6453 107.861 31.304 108.16C30.984 108.437 30.7173 108.789 30.504 109.216C30.312 109.621 30.216 110.091 30.216 110.624ZM62.8033 124.768V128H47.8913V124.768H53.6513V110.688H47.9233V108.064C48.7766 108.043 49.5553 108 50.2593 107.936C50.9633 107.851 51.5926 107.712 52.1473 107.52C52.7019 107.328 53.1819 107.051 53.5873 106.688C54.0139 106.304 54.3659 105.792 54.6433 105.152H57.4593V124.768H62.8033ZM77.0668 125.472C77.7281 125.472 78.3468 125.387 78.9228 125.216C79.4988 125.024 80.0001 124.757 80.4268 124.416C80.8534 124.075 81.1841 123.659 81.4188 123.168C81.6534 122.677 81.7708 122.112 81.7708 121.472C81.7708 120.725 81.6321 120.096 81.3548 119.584C81.0774 119.072 80.6828 118.667 80.1708 118.368C79.6588 118.048 79.0401 117.824 78.3148 117.696C77.6108 117.547 76.8321 117.472 75.9788 117.472H74.8588V114.304H75.8188C79.4028 114.304 81.1948 113.109 81.1948 110.72C81.1948 110.144 81.0774 109.643 80.8428 109.216C80.6294 108.768 80.3414 108.405 79.9788 108.128C79.6161 107.851 79.1894 107.648 78.6988 107.52C78.2081 107.371 77.6961 107.296 77.1628 107.296C75.7548 107.296 74.6561 107.691 73.8668 108.48C73.0774 109.269 72.5974 110.347 72.4268 111.712H68.7148C68.8001 110.603 69.0561 109.6 69.4828 108.704C69.9308 107.808 70.5174 107.04 71.2428 106.4C71.9894 105.76 72.8748 105.269 73.8988 104.928C74.9441 104.565 76.1068 104.384 77.3868 104.384C78.3468 104.384 79.2854 104.501 80.2028 104.736C81.1414 104.949 81.9734 105.312 82.6988 105.824C83.4241 106.315 84.0001 106.944 84.4268 107.712C84.8748 108.48 85.0988 109.408 85.0988 110.496C85.0988 111.648 84.7894 112.683 84.1708 113.6C83.5521 114.517 82.7308 115.221 81.7068 115.712C82.4108 115.968 83.0081 116.299 83.4988 116.704C84.0108 117.109 84.4268 117.557 84.7468 118.048C85.0668 118.539 85.3014 119.072 85.4508 119.648C85.6214 120.203 85.7068 120.779 85.7068 121.376C85.7068 122.571 85.4721 123.605 85.0028 124.48C84.5334 125.355 83.8934 126.091 83.0828 126.688C82.2934 127.264 81.3654 127.701 80.2988 128C79.2534 128.277 78.1548 128.416 77.0028 128.416C75.6588 128.416 74.4641 128.213 73.4188 127.808C72.3948 127.403 71.5201 126.848 70.7948 126.144C70.0908 125.44 69.5361 124.629 69.1308 123.712C68.7254 122.795 68.4908 121.824 68.4268 120.8H72.1388C72.2241 121.44 72.3841 122.048 72.6188 122.624C72.8748 123.179 73.2054 123.669 73.6108 124.096C74.0161 124.523 74.4961 124.864 75.0508 125.12C75.6268 125.355 76.2988 125.472 77.0668 125.472ZM98.7543 125.472C100.44 125.472 101.741 124.693 102.658 123.136C103.576 121.579 104.034 119.328 104.034 116.384C104.034 113.44 103.576 111.189 102.658 109.632C101.741 108.075 100.44 107.296 98.7543 107.296C97.0903 107.296 95.7996 108.075 94.8823 109.632C93.9649 111.189 93.5063 113.44 93.5063 116.384C93.5063 119.328 93.9649 121.579 94.8823 123.136C95.7996 124.693 97.0903 125.472 98.7543 125.472ZM98.7543 128.416C97.2183 128.416 95.8743 128.128 94.7223 127.552C93.5703 126.955 92.6103 126.133 91.8423 125.088C91.0743 124.021 90.4983 122.752 90.1143 121.28C89.7303 119.808 89.5383 118.176 89.5383 116.384C89.5383 114.613 89.7303 112.992 90.1143 111.52C90.4983 110.048 91.0743 108.789 91.8423 107.744C92.6103 106.677 93.5703 105.856 94.7223 105.28C95.8743 104.683 97.2183 104.384 98.7543 104.384C100.312 104.384 101.666 104.683 102.818 105.28C103.97 105.856 104.93 106.677 105.698 107.744C106.466 108.789 107.042 110.048 107.426 111.52C107.81 112.992 108.002 114.613 108.002 116.384C108.002 118.176 107.81 119.808 107.426 121.28C107.042 122.752 106.466 124.021 105.698 125.088C104.93 126.133 103.97 126.955 102.818 127.552C101.666 128.128 100.312 128.416 98.7543 128.416ZM111.258 123.648H115.61V128.32L113.37 133.056H111.098L113.21 128H111.258V123.648ZM128.129 125.472C129.815 125.472 131.116 124.693 132.033 123.136C132.951 121.579 133.409 119.328 133.409 116.384C133.409 113.44 132.951 111.189 132.033 109.632C131.116 108.075 129.815 107.296 128.129 107.296C126.465 107.296 125.175 108.075 124.257 109.632C123.34 111.189 122.881 113.44 122.881 116.384C122.881 119.328 123.34 121.579 124.257 123.136C125.175 124.693 126.465 125.472 128.129 125.472ZM128.129 128.416C126.593 128.416 125.249 128.128 124.097 127.552C122.945 126.955 121.985 126.133 121.217 125.088C120.449 124.021 119.873 122.752 119.489 121.28C119.105 119.808 118.913 118.176 118.913 116.384C118.913 114.613 119.105 112.992 119.489 111.52C119.873 110.048 120.449 108.789 121.217 107.744C121.985 106.677 122.945 105.856 124.097 105.28C125.249 104.683 126.593 104.384 128.129 104.384C129.687 104.384 131.041 104.683 132.193 105.28C133.345 105.856 134.305 106.677 135.073 107.744C135.841 108.789 136.417 110.048 136.801 111.52C137.185 112.992 137.377 114.613 137.377 116.384C137.377 118.176 137.185 119.808 136.801 121.28C136.417 122.752 135.841 124.021 135.073 125.088C134.305 126.133 133.345 126.955 132.193 127.552C131.041 128.128 129.687 128.416 128.129 128.416ZM149.817 125.472C151.502 125.472 152.803 124.693 153.721 123.136C154.638 121.579 155.097 119.328 155.097 116.384C155.097 113.44 154.638 111.189 153.721 109.632C152.803 108.075 151.502 107.296 149.817 107.296C148.153 107.296 146.862 108.075 145.945 109.632C145.027 111.189 144.569 113.44 144.569 116.384C144.569 119.328 145.027 121.579 145.945 123.136C146.862 124.693 148.153 125.472 149.817 125.472ZM149.817 128.416C148.281 128.416 146.937 128.128 145.785 127.552C144.633 126.955 143.673 126.133 142.905 125.088C142.137 124.021 141.561 122.752 141.177 121.28C140.793 119.808 140.601 118.176 140.601 116.384C140.601 114.613 140.793 112.992 141.177 111.52C141.561 110.048 142.137 108.789 142.905 107.744C143.673 106.677 144.633 105.856 145.785 105.28C146.937 104.683 148.281 104.384 149.817 104.384C151.374 104.384 152.729 104.683 153.881 105.28C155.033 105.856 155.993 106.677 156.761 107.744C157.529 108.789 158.105 110.048 158.489 111.52C158.873 112.992 159.065 114.613 159.065 116.384C159.065 118.176 158.873 119.808 158.489 121.28C158.105 122.752 157.529 124.021 156.761 125.088C155.993 126.133 155.033 126.955 153.881 127.552C152.729 128.128 151.374 128.416 149.817 128.416ZM171.504 125.472C173.19 125.472 174.491 124.693 175.408 123.136C176.326 121.579 176.784 119.328 176.784 116.384C176.784 113.44 176.326 111.189 175.408 109.632C174.491 108.075 173.19 107.296 171.504 107.296C169.84 107.296 168.55 108.075 167.632 109.632C166.715 111.189 166.256 113.44 166.256 116.384C166.256 119.328 166.715 121.579 167.632 123.136C168.55 124.693 169.84 125.472 171.504 125.472ZM171.504 128.416C169.968 128.416 168.624 128.128 167.472 127.552C166.32 126.955 165.36 126.133 164.592 125.088C163.824 124.021 163.248 122.752 162.864 121.28C162.48 119.808 162.288 118.176 162.288 116.384C162.288 114.613 162.48 112.992 162.864 111.52C163.248 110.048 163.824 108.789 164.592 107.744C165.36 106.677 166.32 105.856 167.472 105.28C168.624 104.683 169.968 104.384 171.504 104.384C173.062 104.384 174.416 104.683 175.568 105.28C176.72 105.856 177.68 106.677 178.448 107.744C179.216 108.789 179.792 110.048 180.176 111.52C180.56 112.992 180.752 114.613 180.752 116.384C180.752 118.176 180.56 119.808 180.176 121.28C179.792 122.752 179.216 124.021 178.448 125.088C177.68 126.133 176.72 126.955 175.568 127.552C174.416 128.128 173.062 128.416 171.504 128.416ZM184.008 128V123.648H188.36V128H184.008ZM200.879 125.472C202.565 125.472 203.866 124.693 204.783 123.136C205.701 121.579 206.159 119.328 206.159 116.384C206.159 113.44 205.701 111.189 204.783 109.632C203.866 108.075 202.565 107.296 200.879 107.296C199.215 107.296 197.925 108.075 197.007 109.632C196.09 111.189 195.631 113.44 195.631 116.384C195.631 119.328 196.09 121.579 197.007 123.136C197.925 124.693 199.215 125.472 200.879 125.472ZM200.879 128.416C199.343 128.416 197.999 128.128 196.847 127.552C195.695 126.955 194.735 126.133 193.967 125.088C193.199 124.021 192.623 122.752 192.239 121.28C191.855 119.808 191.663 118.176 191.663 116.384C191.663 114.613 191.855 112.992 192.239 111.52C192.623 110.048 193.199 108.789 193.967 107.744C194.735 106.677 195.695 105.856 196.847 105.28C197.999 104.683 199.343 104.384 200.879 104.384C202.437 104.384 203.791 104.683 204.943 105.28C206.095 105.856 207.055 106.677 207.823 107.744C208.591 108.789 209.167 110.048 209.551 111.52C209.935 112.992 210.127 114.613 210.127 116.384C210.127 118.176 209.935 119.808 209.551 121.28C209.167 122.752 208.591 124.021 207.823 125.088C207.055 126.133 206.095 126.955 204.943 127.552C203.791 128.128 202.437 128.416 200.879 128.416ZM222.567 125.472C224.252 125.472 225.553 124.693 226.471 123.136C227.388 121.579 227.847 119.328 227.847 116.384C227.847 113.44 227.388 111.189 226.471 109.632C225.553 108.075 224.252 107.296 222.567 107.296C220.903 107.296 219.612 108.075 218.695 109.632C217.777 111.189 217.319 113.44 217.319 116.384C217.319 119.328 217.777 121.579 218.695 123.136C219.612 124.693 220.903 125.472 222.567 125.472ZM222.567 128.416C221.031 128.416 219.687 128.128 218.535 127.552C217.383 126.955 216.423 126.133 215.655 125.088C214.887 124.021 214.311 122.752 213.927 121.28C213.543 119.808 213.351 118.176 213.351 116.384C213.351 114.613 213.543 112.992 213.927 111.52C214.311 110.048 214.887 108.789 215.655 107.744C216.423 106.677 217.383 105.856 218.535 105.28C219.687 104.683 221.031 104.384 222.567 104.384C224.124 104.384 225.479 104.683 226.631 105.28C227.783 105.856 228.743 106.677 229.511 107.744C230.279 108.789 230.855 110.048 231.239 111.52C231.623 112.992 231.815 114.613 231.815 116.384C231.815 118.176 231.623 119.808 231.239 121.28C230.855 122.752 230.279 124.021 229.511 125.088C228.743 126.133 227.783 126.955 226.631 127.552C225.479 128.128 224.124 128.416 222.567 128.416Z" fill="white"/>
<path d="M27.832 144.356H25V143.3H31.888V144.356H29.056V152H27.832V144.356ZM32.5377 148.796C32.5377 149.228 32.5857 149.596 32.6817 149.9C32.7857 150.204 32.9217 150.452 33.0897 150.644C33.2657 150.836 33.4697 150.976 33.7017 151.064C33.9337 151.152 34.1777 151.196 34.4337 151.196C34.6897 151.196 34.9337 151.148 35.1657 151.052C35.3977 150.956 35.5977 150.812 35.7657 150.62C35.9417 150.42 36.0777 150.172 36.1737 149.876C36.2777 149.572 36.3297 149.212 36.3297 148.796C36.3297 148.364 36.2777 147.996 36.1737 147.692C36.0777 147.388 35.9417 147.14 35.7657 146.948C35.5977 146.756 35.3977 146.616 35.1657 146.528C34.9337 146.44 34.6897 146.396 34.4337 146.396C34.1777 146.396 33.9337 146.44 33.7017 146.528C33.4697 146.608 33.2657 146.744 33.0897 146.936C32.9217 147.128 32.7857 147.376 32.6817 147.68C32.5857 147.984 32.5377 148.356 32.5377 148.796ZM31.3737 148.796C31.3737 148.212 31.4577 147.708 31.6257 147.284C31.8017 146.86 32.0337 146.512 32.3217 146.24C32.6097 145.968 32.9377 145.768 33.3057 145.64C33.6737 145.504 34.0497 145.436 34.4337 145.436C34.8177 145.436 35.1937 145.504 35.5617 145.64C35.9297 145.768 36.2577 145.968 36.5457 146.24C36.8337 146.512 37.0617 146.86 37.2297 147.284C37.4057 147.708 37.4937 148.212 37.4937 148.796C37.4937 149.38 37.4057 149.884 37.2297 150.308C37.0617 150.732 36.8337 151.08 36.5457 151.352C36.2577 151.624 35.9297 151.828 35.5617 151.964C35.1937 152.092 34.8177 152.156 34.4337 152.156C34.0497 152.156 33.6737 152.092 33.3057 151.964C32.9377 151.828 32.6097 151.624 32.3217 151.352C32.0337 151.08 31.8017 150.732 31.6257 150.308C31.4577 149.884 31.3737 149.38 31.3737 148.796ZM39.0549 143.924H40.1469V145.544H41.3709V146.42H40.1469V150.248C40.1469 150.416 40.1509 150.556 40.1589 150.668C40.1749 150.772 40.2029 150.856 40.2429 150.92C40.2909 150.984 40.3589 151.028 40.4469 151.052C40.5349 151.076 40.6589 151.088 40.8189 151.088H41.3709V152H40.5789C40.2669 152 40.0109 151.98 39.8109 151.94C39.6189 151.892 39.4669 151.812 39.3549 151.7C39.2429 151.58 39.1629 151.416 39.1149 151.208C39.0749 150.992 39.0549 150.716 39.0549 150.38V146.42H38.0349V145.544H39.0549V143.924ZM46.7253 148.892C46.2293 148.94 45.7813 149 45.3813 149.072C44.9813 149.136 44.6413 149.22 44.3613 149.324C44.0813 149.42 43.8653 149.548 43.7133 149.708C43.5613 149.86 43.4853 150.048 43.4853 150.272C43.4853 150.576 43.5933 150.824 43.8093 151.016C44.0333 151.2 44.3413 151.292 44.7333 151.292C44.9893 151.292 45.2373 151.26 45.4773 151.196C45.7173 151.124 45.9293 151.008 46.1133 150.848C46.2973 150.68 46.4453 150.456 46.5573 150.176C46.6693 149.896 46.7253 149.54 46.7253 149.108V148.892ZM44.4933 152.156C44.1893 152.156 43.9013 152.112 43.6293 152.024C43.3653 151.944 43.1293 151.828 42.9213 151.676C42.7213 151.516 42.5613 151.324 42.4413 151.1C42.3293 150.868 42.2733 150.608 42.2733 150.32C42.2733 149.936 42.3773 149.616 42.5853 149.36C42.7933 149.096 43.0853 148.88 43.4613 148.712C43.8453 148.536 44.3053 148.396 44.8413 148.292C45.3773 148.188 45.9773 148.1 46.6413 148.028V147.848C46.6413 147.544 46.6013 147.292 46.5213 147.092C46.4493 146.892 46.3453 146.736 46.2093 146.624C46.0733 146.504 45.9133 146.42 45.7293 146.372C45.5453 146.324 45.3493 146.3 45.1413 146.3C44.6373 146.3 44.2573 146.416 44.0013 146.648C43.7453 146.872 43.6053 147.184 43.5813 147.584H42.4533C42.4773 147.24 42.5693 146.932 42.7293 146.66C42.8893 146.388 43.0933 146.16 43.3413 145.976C43.5893 145.792 43.8693 145.652 44.1813 145.556C44.4933 145.46 44.8173 145.412 45.1533 145.412C46.0493 145.412 46.7053 145.62 47.1213 146.036C47.5373 146.452 47.7413 147.124 47.7333 148.052L47.7213 149.564C47.7133 150.108 47.7213 150.576 47.7453 150.968C47.7773 151.352 47.8253 151.696 47.8893 152H46.7853C46.7693 151.88 46.7533 151.74 46.7373 151.58C46.7213 151.42 46.7093 151.244 46.7013 151.052C46.5013 151.388 46.2253 151.656 45.8733 151.856C45.5293 152.056 45.0693 152.156 44.4933 152.156ZM50.4404 152H49.3484V143.3H50.4404V152ZM55.7643 148.796C55.7643 149.228 55.8123 149.596 55.9083 149.9C56.0123 150.204 56.1483 150.452 56.3163 150.644C56.4923 150.836 56.6963 150.976 56.9283 151.064C57.1603 151.152 57.4043 151.196 57.6603 151.196C57.9163 151.196 58.1603 151.148 58.3923 151.052C58.6243 150.956 58.8243 150.812 58.9923 150.62C59.1683 150.42 59.3043 150.172 59.4003 149.876C59.5043 149.572 59.5563 149.212 59.5563 148.796C59.5563 148.364 59.5043 147.996 59.4003 147.692C59.3043 147.388 59.1683 147.14 58.9923 146.948C58.8243 146.756 58.6243 146.616 58.3923 146.528C58.1603 146.44 57.9163 146.396 57.6603 146.396C57.4043 146.396 57.1603 146.44 56.9283 146.528C56.6963 146.608 56.4923 146.744 56.3163 146.936C56.1483 147.128 56.0123 147.376 55.9083 147.68C55.8123 147.984 55.7643 148.356 55.7643 148.796ZM54.6003 148.796C54.6003 148.212 54.6843 147.708 54.8523 147.284C55.0283 146.86 55.2603 146.512 55.5483 146.24C55.8363 145.968 56.1643 145.768 56.5323 145.64C56.9003 145.504 57.2763 145.436 57.6603 145.436C58.0443 145.436 58.4203 145.504 58.7883 145.64C59.1563 145.768 59.4843 145.968 59.7723 146.24C60.0603 146.512 60.2883 146.86 60.4563 147.284C60.6323 147.708 60.7203 148.212 60.7203 148.796C60.7203 149.38 60.6323 149.884 60.4563 150.308C60.2883 150.732 60.0603 151.08 59.7723 151.352C59.4843 151.624 59.1563 151.828 58.7883 151.964C58.4203 152.092 58.0443 152.156 57.6603 152.156C57.2763 152.156 56.9003 152.092 56.5323 151.964C56.1643 151.828 55.8363 151.624 55.5483 151.352C55.2603 151.08 55.0283 150.732 54.8523 150.308C54.6843 149.884 54.6003 149.38 54.6003 148.796ZM66.0241 151.076C65.8401 151.38 65.5881 151.636 65.2681 151.844C64.9561 152.052 64.5321 152.156 63.9961 152.156C63.6201 152.156 63.3001 152.096 63.0361 151.976C62.7801 151.856 62.5681 151.688 62.4001 151.472C62.2401 151.248 62.1201 150.984 62.0401 150.68C61.9681 150.376 61.9321 150.04 61.9321 149.672V145.544H63.0241V149.348C63.0241 149.596 63.0361 149.832 63.0601 150.056C63.0921 150.28 63.1561 150.48 63.2521 150.656C63.3481 150.824 63.4841 150.96 63.6601 151.064C63.8441 151.16 64.0841 151.208 64.3801 151.208C64.9001 151.208 65.3041 151.032 65.5921 150.68C65.8801 150.32 66.0241 149.792 66.0241 149.096V145.544H67.1161V152H66.0241V151.076ZM69.1604 143.924H70.2524V145.544H71.4764V146.42H70.2524V150.248C70.2524 150.416 70.2564 150.556 70.2644 150.668C70.2804 150.772 70.3084 150.856 70.3484 150.92C70.3964 150.984 70.4644 151.028 70.5524 151.052C70.6404 151.076 70.7644 151.088 70.9244 151.088H71.4764V152H70.6844C70.3724 152 70.1164 151.98 69.9164 151.94C69.7244 151.892 69.5724 151.812 69.4604 151.7C69.3484 151.58 69.2684 151.416 69.2204 151.208C69.1804 150.992 69.1604 150.716 69.1604 150.38V146.42H68.1404V145.544H69.1604V143.924ZM76.4947 147.428C76.4067 147.044 76.2227 146.772 75.9427 146.612C75.6707 146.444 75.3307 146.36 74.9227 146.36C74.7547 146.36 74.5867 146.376 74.4187 146.408C74.2507 146.432 74.0987 146.48 73.9627 146.552C73.8347 146.616 73.7267 146.7 73.6387 146.804C73.5587 146.908 73.5187 147.032 73.5187 147.176C73.5187 147.432 73.6067 147.624 73.7827 147.752C73.9587 147.88 74.2147 147.98 74.5507 148.052L75.4627 148.232C75.7667 148.296 76.0547 148.372 76.3267 148.46C76.6067 148.548 76.8467 148.668 77.0467 148.82C77.2547 148.964 77.4187 149.144 77.5387 149.36C77.6587 149.576 77.7187 149.84 77.7187 150.152C77.7187 150.472 77.6507 150.756 77.5147 151.004C77.3787 151.252 77.1907 151.464 76.9507 151.64C76.7107 151.808 76.4267 151.936 76.0987 152.024C75.7787 152.112 75.4267 152.156 75.0427 152.156C74.6107 152.156 74.2227 152.092 73.8787 151.964C73.5427 151.836 73.2547 151.668 73.0147 151.46C72.7827 151.252 72.5987 151.012 72.4627 150.74C72.3347 150.468 72.2547 150.192 72.2227 149.912H73.3747C73.4627 150.328 73.6387 150.652 73.9027 150.884C74.1747 151.116 74.5627 151.232 75.0667 151.232C75.5067 151.232 75.8747 151.148 76.1707 150.98C76.4667 150.812 76.6147 150.576 76.6147 150.272C76.6147 150.112 76.5787 149.972 76.5067 149.852C76.4347 149.732 76.3347 149.632 76.2067 149.552C76.0867 149.464 75.9427 149.396 75.7747 149.348C75.6147 149.292 75.4427 149.244 75.2587 149.204L74.2987 149.012C74.0667 148.964 73.8387 148.9 73.6147 148.82C73.3907 148.74 73.1867 148.632 73.0027 148.496C72.8267 148.36 72.6827 148.192 72.5707 147.992C72.4667 147.784 72.4147 147.528 72.4147 147.224C72.4147 146.936 72.4827 146.684 72.6187 146.468C72.7547 146.244 72.9387 146.056 73.1707 145.904C73.4107 145.744 73.6907 145.624 74.0107 145.544C74.3307 145.464 74.6747 145.424 75.0427 145.424C75.7707 145.424 76.3587 145.604 76.8067 145.964C77.2547 146.324 77.5307 146.812 77.6347 147.428H76.4947ZM79.3674 143.924H80.4594V145.544H81.6834V146.42H80.4594V150.248C80.4594 150.416 80.4634 150.556 80.4714 150.668C80.4874 150.772 80.5154 150.856 80.5554 150.92C80.6034 150.984 80.6714 151.028 80.7594 151.052C80.8474 151.076 80.9714 151.088 81.1314 151.088H81.6834V152H80.8914C80.5794 152 80.3234 151.98 80.1234 151.94C79.9314 151.892 79.7794 151.812 79.6674 151.7C79.5554 151.58 79.4754 151.416 79.4274 151.208C79.3874 150.992 79.3674 150.716 79.3674 150.38V146.42H78.3474V145.544H79.3674V143.924ZM87.0378 148.892C86.5418 148.94 86.0938 149 85.6938 149.072C85.2938 149.136 84.9538 149.22 84.6738 149.324C84.3938 149.42 84.1778 149.548 84.0258 149.708C83.8738 149.86 83.7978 150.048 83.7978 150.272C83.7978 150.576 83.9058 150.824 84.1218 151.016C84.3458 151.2 84.6538 151.292 85.0458 151.292C85.3018 151.292 85.5498 151.26 85.7898 151.196C86.0298 151.124 86.2418 151.008 86.4258 150.848C86.6098 150.68 86.7578 150.456 86.8698 150.176C86.9818 149.896 87.0378 149.54 87.0378 149.108V148.892ZM84.8058 152.156C84.5018 152.156 84.2138 152.112 83.9418 152.024C83.6778 151.944 83.4418 151.828 83.2338 151.676C83.0338 151.516 82.8738 151.324 82.7538 151.1C82.6418 150.868 82.5858 150.608 82.5858 150.32C82.5858 149.936 82.6898 149.616 82.8978 149.36C83.1058 149.096 83.3978 148.88 83.7738 148.712C84.1578 148.536 84.6178 148.396 85.1538 148.292C85.6898 148.188 86.2898 148.1 86.9538 148.028V147.848C86.9538 147.544 86.9138 147.292 86.8338 147.092C86.7618 146.892 86.6578 146.736 86.5218 146.624C86.3858 146.504 86.2258 146.42 86.0418 146.372C85.8578 146.324 85.6618 146.3 85.4538 146.3C84.9498 146.3 84.5698 146.416 84.3138 146.648C84.0578 146.872 83.9178 147.184 83.8938 147.584H82.7658C82.7898 147.24 82.8818 146.932 83.0418 146.66C83.2018 146.388 83.4058 146.16 83.6538 145.976C83.9018 145.792 84.1818 145.652 84.4938 145.556C84.8058 145.46 85.1298 145.412 85.4658 145.412C86.3618 145.412 87.0178 145.62 87.4338 146.036C87.8498 146.452 88.0538 147.124 88.0458 148.052L88.0338 149.564C88.0258 150.108 88.0338 150.576 88.0578 150.968C88.0898 151.352 88.1378 151.696 88.2018 152H87.0978C87.0818 151.88 87.0658 151.74 87.0498 151.58C87.0338 151.42 87.0218 151.244 87.0138 151.052C86.8138 151.388 86.5378 151.656 86.1858 151.856C85.8418 152.056 85.3818 152.156 84.8058 152.156ZM90.7529 146.516C90.9369 146.212 91.1929 145.956 91.5209 145.748C91.8569 145.54 92.2969 145.436 92.8409 145.436C93.2329 145.436 93.5609 145.496 93.8249 145.616C94.0969 145.736 94.3169 145.908 94.4849 146.132C94.6529 146.348 94.7729 146.608 94.8449 146.912C94.9249 147.216 94.9649 147.552 94.9649 147.92V152H93.8729V148.244C93.8729 147.996 93.8569 147.76 93.8249 147.536C93.7929 147.312 93.7289 147.116 93.6329 146.948C93.5369 146.772 93.3929 146.636 93.2009 146.54C93.0169 146.436 92.7689 146.384 92.4569 146.384C91.9289 146.384 91.5129 146.564 91.2089 146.924C90.9049 147.276 90.7529 147.8 90.7529 148.496V152H89.6609V145.544H90.7529V146.516ZM100.99 143.3H102.082V152H100.99V151.028C100.79 151.372 100.518 151.648 100.174 151.856C99.8304 152.056 99.3984 152.156 98.8784 152.156C98.4944 152.156 98.1384 152.084 97.8104 151.94C97.4824 151.788 97.1944 151.568 96.9464 151.28C96.6984 150.992 96.5024 150.64 96.3584 150.224C96.2224 149.808 96.1544 149.332 96.1544 148.796C96.1544 148.268 96.2224 147.796 96.3584 147.38C96.5024 146.964 96.6984 146.612 96.9464 146.324C97.1944 146.036 97.4824 145.816 97.8104 145.664C98.1384 145.512 98.4944 145.436 98.8784 145.436C99.3984 145.436 99.8304 145.54 100.174 145.748C100.518 145.948 100.79 146.22 100.99 146.564V143.3ZM101.038 148.796C101.038 148.372 100.986 148.008 100.882 147.704C100.778 147.392 100.638 147.14 100.462 146.948C100.286 146.748 100.082 146.604 99.8504 146.516C99.6264 146.42 99.3944 146.372 99.1544 146.372C98.5704 146.372 98.1224 146.584 97.8104 147.008C97.4984 147.424 97.3424 148.02 97.3424 148.796C97.3424 149.572 97.4984 150.172 97.8104 150.596C98.1224 151.012 98.5704 151.22 99.1544 151.22C99.3944 151.22 99.6264 151.176 99.8504 151.088C100.082 150.992 100.286 150.848 100.462 150.656C100.638 150.456 100.778 150.204 100.882 149.9C100.986 149.588 101.038 149.22 101.038 148.796ZM104.897 145.544V152H103.805V145.544H104.897ZM104.897 143.3V144.62H103.805V143.3H104.897ZM107.722 146.516C107.906 146.212 108.162 145.956 108.49 145.748C108.826 145.54 109.266 145.436 109.81 145.436C110.202 145.436 110.53 145.496 110.794 145.616C111.066 145.736 111.286 145.908 111.454 146.132C111.622 146.348 111.742 146.608 111.814 146.912C111.894 147.216 111.934 147.552 111.934 147.92V152H110.842V148.244C110.842 147.996 110.826 147.76 110.794 147.536C110.762 147.312 110.698 147.116 110.602 146.948C110.506 146.772 110.362 146.636 110.17 146.54C109.986 146.436 109.738 146.384 109.426 146.384C108.898 146.384 108.482 146.564 108.178 146.924C107.874 147.276 107.722 147.8 107.722 148.496V152H106.63V145.544H107.722V146.516ZM117.851 145.544H118.943V151.136C118.943 151.464 118.927 151.748 118.895 151.988C118.871 152.228 118.831 152.436 118.775 152.612C118.719 152.788 118.655 152.936 118.583 153.056C118.511 153.184 118.427 153.3 118.331 153.404C118.099 153.676 117.787 153.884 117.395 154.028C117.011 154.18 116.579 154.256 116.099 154.256C115.363 154.256 114.763 154.088 114.299 153.752C113.835 153.424 113.551 152.932 113.447 152.276H114.611C114.643 152.42 114.691 152.552 114.755 152.672C114.827 152.8 114.919 152.908 115.031 152.996C115.151 153.092 115.295 153.164 115.463 153.212C115.639 153.268 115.855 153.296 116.111 153.296C116.695 153.296 117.135 153.136 117.431 152.816C117.487 152.752 117.539 152.684 117.587 152.612C117.643 152.54 117.691 152.448 117.731 152.336C117.771 152.232 117.799 152.104 117.815 151.952C117.839 151.792 117.851 151.604 117.851 151.388V150.776C117.651 151.12 117.387 151.392 117.059 151.592C116.739 151.792 116.319 151.892 115.799 151.892C115.415 151.892 115.059 151.824 114.731 151.688C114.411 151.544 114.131 151.336 113.891 151.064C113.659 150.784 113.475 150.444 113.339 150.044C113.203 149.644 113.135 149.184 113.135 148.664C113.135 148.152 113.203 147.696 113.339 147.296C113.475 146.888 113.659 146.548 113.891 146.276C114.131 146.004 114.411 145.796 114.731 145.652C115.059 145.508 115.415 145.436 115.799 145.436C116.319 145.436 116.739 145.54 117.059 145.748C117.387 145.948 117.651 146.22 117.851 146.564V145.544ZM117.899 148.664C117.899 148.256 117.847 147.908 117.743 147.62C117.647 147.332 117.515 147.096 117.347 146.912C117.179 146.72 116.983 146.584 116.759 146.504C116.543 146.416 116.315 146.372 116.075 146.372C115.491 146.372 115.051 146.572 114.755 146.972C114.467 147.364 114.323 147.928 114.323 148.664C114.323 149.408 114.467 149.98 114.755 150.38C115.051 150.772 115.491 150.968 116.075 150.968C116.315 150.968 116.543 150.928 116.759 150.848C116.983 150.76 117.179 150.624 117.347 150.44C117.515 150.248 117.647 150.008 117.743 149.72C117.847 149.424 117.899 149.072 117.899 148.664Z" fill="white"/>
<path d="M25 188C25 183.582 28.5817 180 33 180H57C61.4183 180 65 183.582 65 188V212C65 216.418 61.4183 220 57 220H33C28.5817 220 25 216.418 25 212V188Z" fill="url(#paint2_linear_2986_203399)" fill-opacity="0.16"/>
<path fill-rule="evenodd" clip-rule="evenodd" d="M44.9997 193.333C41.3178 193.333 38.333 196.318 38.333 200C38.333 203.682 41.3178 206.666 44.9997 206.666C48.6816 206.666 51.6663 203.682 51.6663 200C51.6663 196.318 48.6816 193.333 44.9997 193.333ZM41.6461 202.646L47.6461 196.646L48.3532 197.353L42.3532 203.353L41.6461 202.646ZM42.9997 198.666C42.6315 198.666 42.333 198.368 42.333 198C42.333 197.631 42.6315 197.333 42.9997 197.333C43.3679 197.333 43.6663 197.631 43.6663 198C43.6663 198.368 43.3679 198.666 42.9997 198.666ZM46.9997 202.666C46.6315 202.666 46.333 202.368 46.333 202C46.333 201.631 46.6315 201.333 46.9997 201.333C47.3679 201.333 47.6663 201.631 47.6663 202C47.6663 202.368 47.3679 202.666 46.9997 202.666Z" fill="white"/>
<path d="M80.744 195.8C81.224 195.8 81.684 195.828 82.124 195.884C82.572 195.94 82.964 196.064 83.3 196.256C83.644 196.448 83.92 196.724 84.128 197.084C84.336 197.444 84.44 197.928 84.44 198.536C84.44 199.088 84.344 199.536 84.152 199.88C83.96 200.224 83.7 200.496 83.372 200.696C83.044 200.896 82.656 201.032 82.208 201.104C81.76 201.176 81.28 201.212 80.768 201.212H79.4V204.5H77.876V195.8H80.744ZM79.4 197.024V199.964H80.816C81.104 199.964 81.372 199.948 81.62 199.916C81.868 199.884 82.084 199.82 82.268 199.724C82.452 199.628 82.596 199.488 82.7 199.304C82.804 199.112 82.856 198.86 82.856 198.548C82.856 198.196 82.796 197.92 82.676 197.72C82.556 197.512 82.396 197.36 82.196 197.264C82.004 197.16 81.78 197.096 81.524 197.072C81.268 197.04 81.008 197.024 80.744 197.024H79.4ZM89.1594 201.464C88.6474 201.512 88.2114 201.568 87.8514 201.632C87.4914 201.696 87.1954 201.776 86.9634 201.872C86.7314 201.968 86.5594 202.084 86.4474 202.22C86.3434 202.348 86.2914 202.504 86.2914 202.688C86.2914 202.968 86.3994 203.188 86.6154 203.348C86.8314 203.508 87.1194 203.588 87.4794 203.588C88.0074 203.588 88.4194 203.444 88.7154 203.156C89.0114 202.86 89.1594 202.372 89.1594 201.692V201.464ZM87.8034 197.852C88.2034 197.852 88.5714 197.9 88.9074 197.996C89.2514 198.092 89.5474 198.248 89.7954 198.464C90.0434 198.68 90.2314 198.964 90.3594 199.316C90.4954 199.668 90.5594 200.1 90.5514 200.612C90.5514 200.692 90.5474 200.8 90.5394 200.936C90.5394 201.064 90.5394 201.204 90.5394 201.356C90.5394 201.508 90.5354 201.668 90.5274 201.836C90.5274 201.996 90.5274 202.148 90.5274 202.292C90.5274 202.7 90.5434 203.104 90.5754 203.504C90.6074 203.896 90.6554 204.228 90.7194 204.5H89.4114C89.3874 204.364 89.3634 204.232 89.3394 204.104C89.3234 203.976 89.3074 203.8 89.2914 203.576C89.0914 203.936 88.8074 204.208 88.4394 204.392C88.0714 204.568 87.6474 204.656 87.1674 204.656C86.8154 204.656 86.4914 204.608 86.1954 204.512C85.9074 204.424 85.6554 204.296 85.4394 204.128C85.2314 203.96 85.0674 203.76 84.9474 203.528C84.8354 203.288 84.7794 203.02 84.7794 202.724C84.7794 202.324 84.8954 201.992 85.1274 201.728C85.3594 201.464 85.6714 201.248 86.0634 201.08C86.4634 200.912 86.9234 200.784 87.4434 200.696C87.9714 200.608 88.5314 200.532 89.1234 200.468V200.312C89.1234 200.04 89.0874 199.816 89.0154 199.64C88.9434 199.456 88.8434 199.312 88.7154 199.208C88.5954 199.096 88.4514 199.02 88.2834 198.98C88.1154 198.932 87.9314 198.908 87.7314 198.908C87.3634 198.908 87.0554 199.004 86.8074 199.196C86.5594 199.388 86.4274 199.68 86.4114 200.072H85.0074C85.0314 199.744 85.1154 199.444 85.2594 199.172C85.4034 198.9 85.5954 198.668 85.8354 198.476C86.0834 198.276 86.3714 198.124 86.6994 198.02C87.0354 197.908 87.4034 197.852 87.8034 197.852ZM91.6262 206.6V205.508H92.1662C92.3182 205.508 92.4502 205.5 92.5622 205.484C92.6822 205.476 92.7862 205.44 92.8742 205.376C92.9702 205.32 93.0542 205.232 93.1262 205.112C93.1982 204.992 93.2702 204.828 93.3422 204.62L93.4142 204.464L91.0742 198.044H92.6342L94.0982 202.676L95.5622 198.044H97.0262L94.7582 204.488C94.6062 204.904 94.4582 205.248 94.3142 205.52C94.1782 205.792 94.0182 206.008 93.8342 206.168C93.6502 206.328 93.4342 206.44 93.1862 206.504C92.9382 206.568 92.6342 206.6 92.2742 206.6H91.6262ZM99.2593 204.5H97.8313V198.044H99.2593V198.944C99.4433 198.608 99.6913 198.352 100.003 198.176C100.323 197.992 100.699 197.9 101.131 197.9C101.635 197.9 102.035 198 102.331 198.2C102.635 198.4 102.863 198.68 103.015 199.04C103.295 198.632 103.615 198.34 103.975 198.164C104.335 197.988 104.715 197.9 105.115 197.9C105.499 197.9 105.823 197.96 106.087 198.08C106.359 198.2 106.579 198.372 106.747 198.596C106.915 198.82 107.035 199.088 107.107 199.4C107.187 199.712 107.227 200.06 107.227 200.444V204.5H105.799V200.792C105.799 200.576 105.787 200.364 105.763 200.156C105.747 199.948 105.699 199.764 105.619 199.604C105.547 199.436 105.435 199.304 105.283 199.208C105.131 199.112 104.923 199.064 104.659 199.064C104.395 199.064 104.171 199.116 103.987 199.22C103.811 199.316 103.667 199.452 103.555 199.628C103.443 199.804 103.363 200.016 103.315 200.264C103.267 200.512 103.243 200.78 103.243 201.068V204.5H101.815V200.792C101.815 200.576 101.803 200.364 101.779 200.156C101.763 199.948 101.715 199.764 101.635 199.604C101.563 199.436 101.451 199.304 101.299 199.208C101.147 199.112 100.939 199.064 100.675 199.064C100.411 199.064 100.187 199.116 100.003 199.22C99.8273 199.316 99.6833 199.452 99.5713 199.628C99.4593 199.804 99.3793 200.016 99.3313 200.264C99.2833 200.512 99.2593 200.78 99.2593 201.068V204.5ZM111.514 204.656C110.986 204.656 110.518 204.564 110.11 204.38C109.71 204.196 109.374 203.948 109.102 203.636C108.838 203.324 108.634 202.96 108.49 202.544C108.354 202.128 108.286 201.688 108.286 201.224C108.286 200.736 108.362 200.292 108.514 199.892C108.666 199.484 108.878 199.132 109.15 198.836C109.422 198.54 109.75 198.312 110.134 198.152C110.518 197.984 110.946 197.9 111.418 197.9C111.922 197.9 112.37 197.996 112.762 198.188C113.154 198.38 113.482 198.644 113.746 198.98C114.01 199.316 114.206 199.716 114.334 200.18C114.462 200.636 114.51 201.136 114.478 201.68H109.738C109.746 201.936 109.794 202.176 109.882 202.4C109.978 202.616 110.102 202.804 110.254 202.964C110.406 203.124 110.582 203.248 110.782 203.336C110.99 203.424 111.214 203.468 111.454 203.468C112.23 203.468 112.746 203.168 113.002 202.568H114.406C114.334 202.824 114.222 203.08 114.07 203.336C113.918 203.584 113.722 203.808 113.482 204.008C113.25 204.2 112.97 204.356 112.642 204.476C112.314 204.596 111.938 204.656 111.514 204.656ZM111.418 199.016C111.218 199.016 111.018 199.048 110.818 199.112C110.626 199.176 110.45 199.276 110.29 199.412C110.138 199.54 110.01 199.708 109.906 199.916C109.802 200.116 109.746 200.356 109.738 200.636H113.026C113.018 200.388 112.97 200.164 112.882 199.964C112.794 199.756 112.678 199.584 112.534 199.448C112.39 199.312 112.222 199.208 112.03 199.136C111.838 199.056 111.634 199.016 111.418 199.016ZM117.095 198.944C117.279 198.608 117.535 198.352 117.863 198.176C118.199 197.992 118.595 197.9 119.051 197.9C119.443 197.9 119.775 197.96 120.047 198.08C120.327 198.2 120.555 198.372 120.731 198.596C120.907 198.82 121.035 199.088 121.115 199.4C121.203 199.712 121.247 200.06 121.247 200.444V204.5H119.819V200.792C119.819 200.576 119.807 200.364 119.783 200.156C119.759 199.948 119.703 199.764 119.615 199.604C119.535 199.436 119.411 199.304 119.243 199.208C119.083 199.112 118.867 199.064 118.595 199.064C118.323 199.064 118.091 199.116 117.899 199.22C117.707 199.316 117.551 199.452 117.431 199.628C117.311 199.804 117.223 200.016 117.167 200.264C117.119 200.512 117.095 200.78 117.095 201.068V204.5H115.667V198.044H117.095V198.944ZM122.938 196.34H124.366V198.044H125.662V199.076H124.366V202.592C124.366 202.92 124.418 203.14 124.522 203.252C124.626 203.356 124.83 203.408 125.134 203.408H125.65V204.5H124.594C124.25 204.5 123.97 204.476 123.754 204.428C123.538 204.372 123.37 204.28 123.25 204.152C123.13 204.024 123.046 203.852 122.998 203.636C122.958 203.412 122.938 203.136 122.938 202.808V199.076H121.978V198.044H122.938V196.34ZM133.105 199.496C132.865 199.472 132.637 199.46 132.421 199.46C132.197 199.46 131.997 199.488 131.821 199.544C131.645 199.592 131.497 199.68 131.377 199.808C131.257 199.928 131.165 200.096 131.101 200.312C131.037 200.528 131.005 200.796 131.005 201.116V204.5H129.577V198.044H130.981V199.196C131.157 198.836 131.393 198.556 131.689 198.356C131.993 198.148 132.341 198.04 132.733 198.032C132.789 198.032 132.849 198.036 132.913 198.044C132.985 198.044 133.049 198.048 133.105 198.056V199.496ZM137.769 201.464C137.257 201.512 136.821 201.568 136.461 201.632C136.101 201.696 135.805 201.776 135.573 201.872C135.341 201.968 135.169 202.084 135.057 202.22C134.953 202.348 134.901 202.504 134.901 202.688C134.901 202.968 135.009 203.188 135.225 203.348C135.441 203.508 135.729 203.588 136.089 203.588C136.617 203.588 137.029 203.444 137.325 203.156C137.621 202.86 137.769 202.372 137.769 201.692V201.464ZM136.413 197.852C136.813 197.852 137.181 197.9 137.517 197.996C137.861 198.092 138.157 198.248 138.405 198.464C138.653 198.68 138.841 198.964 138.969 199.316C139.105 199.668 139.169 200.1 139.161 200.612C139.161 200.692 139.157 200.8 139.149 200.936C139.149 201.064 139.149 201.204 139.149 201.356C139.149 201.508 139.145 201.668 139.137 201.836C139.137 201.996 139.137 202.148 139.137 202.292C139.137 202.7 139.153 203.104 139.185 203.504C139.217 203.896 139.265 204.228 139.329 204.5H138.021C137.997 204.364 137.973 204.232 137.949 204.104C137.933 203.976 137.917 203.8 137.901 203.576C137.701 203.936 137.417 204.208 137.049 204.392C136.681 204.568 136.257 204.656 135.777 204.656C135.425 204.656 135.101 204.608 134.805 204.512C134.517 204.424 134.265 204.296 134.049 204.128C133.841 203.96 133.677 203.76 133.557 203.528C133.445 203.288 133.389 203.02 133.389 202.724C133.389 202.324 133.505 201.992 133.737 201.728C133.969 201.464 134.281 201.248 134.673 201.08C135.073 200.912 135.533 200.784 136.053 200.696C136.581 200.608 137.141 200.532 137.733 200.468V200.312C137.733 200.04 137.697 199.816 137.625 199.64C137.553 199.456 137.453 199.312 137.325 199.208C137.205 199.096 137.061 199.02 136.893 198.98C136.725 198.932 136.541 198.908 136.341 198.908C135.973 198.908 135.665 199.004 135.417 199.196C135.169 199.388 135.037 199.68 135.021 200.072H133.617C133.641 199.744 133.725 199.444 133.869 199.172C134.013 198.9 134.205 198.668 134.445 198.476C134.693 198.276 134.981 198.124 135.309 198.02C135.645 197.908 136.013 197.852 136.413 197.852ZM140.809 196.34H142.237V198.044H143.533V199.076H142.237V202.592C142.237 202.92 142.289 203.14 142.393 203.252C142.497 203.356 142.701 203.408 143.005 203.408H143.521V204.5H142.465C142.121 204.5 141.841 204.476 141.625 204.428C141.409 204.372 141.241 204.28 141.121 204.152C141.001 204.024 140.917 203.852 140.869 203.636C140.829 203.412 140.809 203.136 140.809 202.808V199.076H139.849V198.044H140.809V196.34ZM147.479 204.656C146.951 204.656 146.483 204.564 146.075 204.38C145.675 204.196 145.339 203.948 145.067 203.636C144.803 203.324 144.599 202.96 144.455 202.544C144.319 202.128 144.251 201.688 144.251 201.224C144.251 200.736 144.327 200.292 144.479 199.892C144.631 199.484 144.843 199.132 145.115 198.836C145.387 198.54 145.715 198.312 146.099 198.152C146.483 197.984 146.911 197.9 147.383 197.9C147.887 197.9 148.335 197.996 148.727 198.188C149.119 198.38 149.447 198.644 149.711 198.98C149.975 199.316 150.171 199.716 150.299 200.18C150.427 200.636 150.475 201.136 150.443 201.68H145.703C145.711 201.936 145.759 202.176 145.847 202.4C145.943 202.616 146.067 202.804 146.219 202.964C146.371 203.124 146.547 203.248 146.747 203.336C146.955 203.424 147.179 203.468 147.419 203.468C148.195 203.468 148.711 203.168 148.967 202.568H150.371C150.299 202.824 150.187 203.08 150.035 203.336C149.883 203.584 149.687 203.808 149.447 204.008C149.215 204.2 148.935 204.356 148.607 204.476C148.279 204.596 147.903 204.656 147.479 204.656ZM147.383 199.016C147.183 199.016 146.983 199.048 146.783 199.112C146.591 199.176 146.415 199.276 146.255 199.412C146.103 199.54 145.975 199.708 145.871 199.916C145.767 200.116 145.711 200.356 145.703 200.636H148.991C148.983 200.388 148.935 200.164 148.847 199.964C148.759 199.756 148.643 199.584 148.499 199.448C148.355 199.312 148.187 199.208 147.995 199.136C147.803 199.056 147.599 199.016 147.383 199.016Z" fill="white"/>
<path d="M235.181 201.716C235.181 202.02 235.225 202.296 235.313 202.544C235.401 202.792 235.529 203.004 235.697 203.18C235.865 203.356 236.065 203.496 236.297 203.6C236.529 203.696 236.789 203.744 237.077 203.744C237.357 203.744 237.613 203.696 237.845 203.6C238.077 203.496 238.277 203.356 238.445 203.18C238.613 202.996 238.745 202.78 238.841 202.532C238.937 202.284 238.985 202.012 238.985 201.716C238.985 201.42 238.937 201.148 238.841 200.9C238.753 200.644 238.625 200.424 238.457 200.24C238.289 200.056 238.089 199.912 237.857 199.808C237.625 199.704 237.369 199.652 237.089 199.652C236.801 199.652 236.541 199.704 236.309 199.808C236.077 199.912 235.877 200.056 235.709 200.24C235.541 200.424 235.409 200.644 235.313 200.9C235.225 201.148 235.181 201.42 235.181 201.716ZM237.185 196.556C236.849 196.556 236.549 196.636 236.285 196.796C236.029 196.956 235.809 197.184 235.625 197.48C235.449 197.776 235.313 198.132 235.217 198.548C235.121 198.956 235.065 199.412 235.049 199.916C235.249 199.572 235.537 199.284 235.913 199.052C236.289 198.82 236.765 198.704 237.341 198.704C237.749 198.704 238.121 198.776 238.457 198.92C238.801 199.064 239.097 199.268 239.345 199.532C239.601 199.788 239.797 200.1 239.933 200.468C240.077 200.828 240.149 201.224 240.149 201.656C240.149 202.064 240.077 202.448 239.933 202.808C239.789 203.168 239.581 203.488 239.309 203.768C239.045 204.04 238.725 204.256 238.349 204.416C237.973 204.576 237.553 204.656 237.089 204.656C236.001 204.656 235.201 204.292 234.689 203.564C234.177 202.836 233.921 201.8 233.921 200.456C233.921 199.84 233.977 199.244 234.089 198.668C234.209 198.092 234.401 197.58 234.665 197.132C234.937 196.684 235.289 196.324 235.721 196.052C236.153 195.78 236.685 195.644 237.317 195.644C237.741 195.644 238.109 195.708 238.421 195.836C238.741 195.956 239.009 196.116 239.225 196.316C239.449 196.516 239.621 196.748 239.741 197.012C239.869 197.276 239.957 197.544 240.005 197.816H238.817C238.745 197.424 238.565 197.116 238.277 196.892C237.997 196.668 237.633 196.556 237.185 196.556ZM241.885 204.5V203.12H243.265V204.5H241.885ZM248.103 203.744C248.367 203.744 248.615 203.7 248.847 203.612C249.079 203.516 249.283 203.38 249.459 203.204C249.643 203.02 249.787 202.8 249.891 202.544C249.995 202.28 250.047 201.98 250.047 201.644C250.047 201.284 249.987 200.976 249.867 200.72C249.755 200.456 249.607 200.24 249.423 200.072C249.239 199.904 249.031 199.78 248.799 199.7C248.567 199.62 248.331 199.58 248.091 199.58C247.867 199.58 247.663 199.612 247.479 199.676C247.295 199.732 247.131 199.808 246.987 199.904C246.843 199.992 246.723 200.096 246.627 200.216C246.531 200.328 246.459 200.436 246.411 200.54L245.319 200.48L245.883 195.8H250.875V196.82H246.771L246.471 199.292C246.703 199.068 246.983 198.904 247.311 198.8C247.639 198.688 247.983 198.632 248.343 198.632C248.727 198.632 249.091 198.7 249.435 198.836C249.779 198.964 250.079 199.156 250.335 199.412C250.599 199.668 250.807 199.984 250.959 200.36C251.119 200.728 251.199 201.152 251.199 201.632C251.199 202.128 251.111 202.568 250.935 202.952C250.767 203.328 250.539 203.644 250.251 203.9C249.971 204.148 249.643 204.336 249.267 204.464C248.899 204.592 248.511 204.656 248.103 204.656C247.599 204.656 247.163 204.584 246.795 204.44C246.427 204.288 246.115 204.092 245.859 203.852C245.611 203.604 245.415 203.32 245.271 203C245.135 202.672 245.047 202.332 245.007 201.98H246.135C246.223 202.532 246.419 202.964 246.723 203.276C247.035 203.588 247.495 203.744 248.103 203.744ZM254.58 200.78C254.252 200.78 253.964 200.72 253.716 200.6C253.476 200.472 253.276 200.296 253.116 200.072C252.956 199.848 252.832 199.584 252.744 199.28C252.664 198.968 252.624 198.624 252.624 198.248C252.624 197.88 252.664 197.54 252.744 197.228C252.832 196.916 252.956 196.648 253.116 196.424C253.276 196.2 253.476 196.028 253.716 195.908C253.964 195.78 254.252 195.716 254.58 195.716C254.908 195.716 255.196 195.78 255.444 195.908C255.692 196.028 255.896 196.2 256.056 196.424C256.224 196.648 256.348 196.916 256.428 197.228C256.516 197.54 256.56 197.88 256.56 198.248C256.56 198.624 256.516 198.968 256.428 199.28C256.348 199.584 256.224 199.848 256.056 200.072C255.896 200.296 255.692 200.472 255.444 200.6C255.196 200.72 254.908 200.78 254.58 200.78ZM254.58 200.12C254.932 200.12 255.196 199.96 255.372 199.64C255.556 199.312 255.648 198.848 255.648 198.248C255.648 197.648 255.556 197.184 255.372 196.856C255.196 196.528 254.932 196.364 254.58 196.364C254.244 196.364 253.984 196.528 253.8 196.856C253.624 197.184 253.536 197.648 253.536 198.248C253.536 198.848 253.624 199.312 253.8 199.64C253.984 199.96 254.244 200.12 254.58 200.12ZM254.568 204.5L260.568 195.8H261.78L255.78 204.5H254.568ZM261.78 204.584C261.452 204.584 261.164 204.524 260.916 204.404C260.676 204.276 260.476 204.1 260.316 203.876C260.156 203.652 260.032 203.388 259.944 203.084C259.864 202.772 259.824 202.428 259.824 202.052C259.824 201.684 259.864 201.344 259.944 201.032C260.032 200.72 260.156 200.452 260.316 200.228C260.476 200.004 260.676 199.832 260.916 199.712C261.164 199.584 261.452 199.52 261.78 199.52C262.108 199.52 262.396 199.584 262.644 199.712C262.892 199.832 263.096 200.004 263.256 200.228C263.424 200.452 263.548 200.72 263.628 201.032C263.716 201.344 263.76 201.684 263.76 202.052C263.76 202.428 263.716 202.772 263.628 203.084C263.548 203.388 263.424 203.652 263.256 203.876C263.096 204.1 262.892 204.276 262.644 204.404C262.396 204.524 262.108 204.584 261.78 204.584ZM261.78 203.924C262.132 203.924 262.396 203.764 262.572 203.444C262.756 203.116 262.848 202.652 262.848 202.052C262.848 201.452 262.756 200.988 262.572 200.66C262.396 200.332 262.132 200.168 261.78 200.168C261.444 200.168 261.184 200.332 261 200.66C260.824 200.988 260.736 201.452 260.736 202.052C260.736 202.652 260.824 203.116 261 203.444C261.184 203.764 261.444 203.924 261.78 203.924ZM268.612 201.296C268.612 201.728 268.66 202.096 268.756 202.4C268.86 202.704 268.996 202.952 269.164 203.144C269.34 203.336 269.544 203.476 269.776 203.564C270.008 203.652 270.252 203.696 270.508 203.696C270.764 203.696 271.008 203.648 271.24 203.552C271.472 203.456 271.672 203.312 271.84 203.12C272.016 202.92 272.152 202.672 272.248 202.376C272.352 202.072 272.404 201.712 272.404 201.296C272.404 200.864 272.352 200.496 272.248 200.192C272.152 199.888 272.016 199.64 271.84 199.448C271.672 199.256 271.472 199.116 271.24 199.028C271.008 198.94 270.764 198.896 270.508 198.896C270.252 198.896 270.008 198.94 269.776 199.028C269.544 199.108 269.34 199.244 269.164 199.436C268.996 199.628 268.86 199.876 268.756 200.18C268.66 200.484 268.612 200.856 268.612 201.296ZM267.448 201.296C267.448 200.712 267.532 200.208 267.7 199.784C267.876 199.36 268.108 199.012 268.396 198.74C268.684 198.468 269.012 198.268 269.38 198.14C269.748 198.004 270.124 197.936 270.508 197.936C270.892 197.936 271.268 198.004 271.636 198.14C272.004 198.268 272.332 198.468 272.62 198.74C272.908 199.012 273.136 199.36 273.304 199.784C273.48 200.208 273.568 200.712 273.568 201.296C273.568 201.88 273.48 202.384 273.304 202.808C273.136 203.232 272.908 203.58 272.62 203.852C272.332 204.124 272.004 204.328 271.636 204.464C271.268 204.592 270.892 204.656 270.508 204.656C270.124 204.656 269.748 204.592 269.38 204.464C269.012 204.328 268.684 204.124 268.396 203.852C268.108 203.58 267.876 203.232 267.7 202.808C267.532 202.384 267.448 201.88 267.448 201.296ZM275.21 197.576C275.21 197.24 275.23 196.96 275.27 196.736C275.318 196.504 275.402 196.32 275.522 196.184C275.65 196.048 275.826 195.952 276.05 195.896C276.282 195.832 276.582 195.8 276.95 195.8H277.514V196.712H276.974C276.83 196.712 276.714 196.724 276.626 196.748C276.538 196.764 276.47 196.804 276.422 196.868C276.374 196.924 276.342 197.004 276.326 197.108C276.31 197.212 276.302 197.348 276.302 197.516V198.044H277.514V198.92H276.302V204.5H275.21V198.92H274.31V198.044H275.21V197.576ZM284.76 199.184C284.648 199.168 284.54 199.156 284.436 199.148C284.332 199.14 284.236 199.136 284.148 199.136C283.644 199.136 283.264 199.288 283.008 199.592C282.76 199.896 282.636 200.404 282.636 201.116V204.5H281.544V198.044H282.612V199.172C282.772 198.804 283.008 198.524 283.32 198.332C283.64 198.132 284.012 198.024 284.436 198.008C284.492 198.008 284.544 198.008 284.592 198.008C284.64 198.008 284.696 198.012 284.76 198.02V199.184ZM288.38 204.656C287.86 204.656 287.404 204.572 287.012 204.404C286.628 204.228 286.304 203.988 286.04 203.684C285.776 203.38 285.576 203.024 285.44 202.616C285.312 202.208 285.248 201.764 285.248 201.284C285.248 200.772 285.324 200.312 285.476 199.904C285.636 199.488 285.852 199.136 286.124 198.848C286.404 198.552 286.732 198.328 287.108 198.176C287.484 198.016 287.896 197.936 288.344 197.936C288.84 197.936 289.28 198.032 289.664 198.224C290.056 198.416 290.38 198.68 290.636 199.016C290.892 199.352 291.076 199.744 291.188 200.192C291.308 200.64 291.352 201.12 291.32 201.632H286.436C286.436 201.952 286.484 202.24 286.58 202.496C286.684 202.752 286.824 202.968 287 203.144C287.176 203.32 287.38 203.456 287.612 203.552C287.844 203.648 288.092 203.696 288.356 203.696C288.86 203.696 289.244 203.6 289.508 203.408C289.772 203.208 289.972 202.948 290.108 202.628H291.236C291.164 202.908 291.048 203.172 290.888 203.42C290.728 203.66 290.528 203.872 290.288 204.056C290.056 204.24 289.78 204.388 289.46 204.5C289.14 204.604 288.78 204.656 288.38 204.656ZM288.344 198.872C287.792 198.872 287.344 199.032 287 199.352C286.656 199.664 286.472 200.112 286.448 200.696H290.168C290.16 200.472 290.116 200.252 290.036 200.036C289.956 199.812 289.84 199.616 289.688 199.448C289.536 199.272 289.348 199.132 289.124 199.028C288.9 198.924 288.64 198.872 288.344 198.872ZM294.648 202.988L296.4 198.044H297.528L295.092 204.5H294.12L291.684 198.044H292.896L294.648 202.988ZM300.966 204.656C300.446 204.656 299.99 204.572 299.598 204.404C299.214 204.228 298.89 203.988 298.626 203.684C298.362 203.38 298.162 203.024 298.026 202.616C297.898 202.208 297.834 201.764 297.834 201.284C297.834 200.772 297.91 200.312 298.062 199.904C298.222 199.488 298.438 199.136 298.71 198.848C298.99 198.552 299.318 198.328 299.694 198.176C300.07 198.016 300.482 197.936 300.93 197.936C301.426 197.936 301.866 198.032 302.25 198.224C302.642 198.416 302.966 198.68 303.222 199.016C303.478 199.352 303.662 199.744 303.774 200.192C303.894 200.64 303.938 201.12 303.906 201.632H299.022C299.022 201.952 299.07 202.24 299.166 202.496C299.27 202.752 299.41 202.968 299.586 203.144C299.762 203.32 299.966 203.456 300.198 203.552C300.43 203.648 300.678 203.696 300.942 203.696C301.446 203.696 301.83 203.6 302.094 203.408C302.358 203.208 302.558 202.948 302.694 202.628H303.822C303.75 202.908 303.634 203.172 303.474 203.42C303.314 203.66 303.114 203.872 302.874 204.056C302.642 204.24 302.366 204.388 302.046 204.5C301.726 204.604 301.366 204.656 300.966 204.656ZM300.93 198.872C300.378 198.872 299.93 199.032 299.586 199.352C299.242 199.664 299.058 200.112 299.034 200.696H302.754C302.746 200.472 302.702 200.252 302.622 200.036C302.542 199.812 302.426 199.616 302.274 199.448C302.122 199.272 301.934 199.132 301.71 199.028C301.486 198.924 301.226 198.872 300.93 198.872ZM306.284 199.016C306.468 198.712 306.724 198.456 307.052 198.248C307.388 198.04 307.828 197.936 308.372 197.936C308.764 197.936 309.092 197.996 309.356 198.116C309.628 198.236 309.848 198.408 310.016 198.632C310.184 198.848 310.304 199.108 310.376 199.412C310.456 199.716 310.496 200.052 310.496 200.42V204.5H309.404V200.744C309.404 200.496 309.388 200.26 309.356 200.036C309.324 199.812 309.26 199.616 309.164 199.448C309.068 199.272 308.924 199.136 308.732 199.04C308.548 198.936 308.3 198.884 307.988 198.884C307.46 198.884 307.044 199.064 306.74 199.424C306.436 199.776 306.284 200.3 306.284 200.996V204.5H305.192V198.044H306.284V199.016ZM316.126 203.576C315.942 203.88 315.69 204.136 315.37 204.344C315.058 204.552 314.634 204.656 314.098 204.656C313.722 204.656 313.402 204.596 313.138 204.476C312.882 204.356 312.67 204.188 312.502 203.972C312.342 203.748 312.222 203.484 312.142 203.18C312.07 202.876 312.034 202.54 312.034 202.172V198.044H313.126V201.848C313.126 202.096 313.138 202.332 313.162 202.556C313.194 202.78 313.258 202.98 313.354 203.156C313.45 203.324 313.586 203.46 313.762 203.564C313.946 203.66 314.186 203.708 314.482 203.708C315.002 203.708 315.406 203.532 315.694 203.18C315.982 202.82 316.126 202.292 316.126 201.596V198.044H317.218V204.5H316.126V203.576ZM321.638 204.656C321.118 204.656 320.662 204.572 320.27 204.404C319.886 204.228 319.562 203.988 319.298 203.684C319.034 203.38 318.834 203.024 318.698 202.616C318.57 202.208 318.506 201.764 318.506 201.284C318.506 200.772 318.582 200.312 318.734 199.904C318.894 199.488 319.11 199.136 319.382 198.848C319.662 198.552 319.99 198.328 320.366 198.176C320.742 198.016 321.154 197.936 321.602 197.936C322.098 197.936 322.538 198.032 322.922 198.224C323.314 198.416 323.638 198.68 323.894 199.016C324.15 199.352 324.334 199.744 324.446 200.192C324.566 200.64 324.61 201.12 324.578 201.632H319.694C319.694 201.952 319.742 202.24 319.838 202.496C319.942 202.752 320.082 202.968 320.258 203.144C320.434 203.32 320.638 203.456 320.87 203.552C321.102 203.648 321.35 203.696 321.614 203.696C322.118 203.696 322.502 203.6 322.766 203.408C323.03 203.208 323.23 202.948 323.366 202.628H324.494C324.422 202.908 324.306 203.172 324.146 203.42C323.986 203.66 323.786 203.872 323.546 204.056C323.314 204.24 323.038 204.388 322.718 204.5C322.398 204.604 322.038 204.656 321.638 204.656ZM321.602 198.872C321.05 198.872 320.602 199.032 320.258 199.352C319.914 199.664 319.73 200.112 319.706 200.696H323.426C323.418 200.472 323.374 200.252 323.294 200.036C323.214 199.812 323.098 199.616 322.946 199.448C322.794 199.272 322.606 199.132 322.382 199.028C322.158 198.924 321.898 198.872 321.602 198.872Z" fill="white"/>
<path d="M25 240C25 235.582 28.5817 232 33 232H57C61.4183 232 65 235.582 65 240V264C65 268.418 61.4183 272 57 272H33C28.5817 272 25 268.418 25 264V240Z" fill="url(#paint3_linear_2986_203399)" fill-opacity="0.16"/>
<path fill-rule="evenodd" clip-rule="evenodd" d="M39 246V258H51V246H39ZM43 251.333H41.6667V252.667H43V251.333ZM43 254H41.6667V255.333H43V254ZM44.3333 254H45.6667V255.333H44.3333V254ZM45.6667 251.333H44.3333V252.667H45.6667V251.333ZM47 251.333H48.3333V252.667H47V251.333ZM50 247H40V248.667H50V247Z" fill="white"/>
<path d="M80.744 247.8C81.224 247.8 81.684 247.828 82.124 247.884C82.572 247.94 82.964 248.064 83.3 248.256C83.644 248.448 83.92 248.724 84.128 249.084C84.336 249.444 84.44 249.928 84.44 250.536C84.44 251.088 84.344 251.536 84.152 251.88C83.96 252.224 83.7 252.496 83.372 252.696C83.044 252.896 82.656 253.032 82.208 253.104C81.76 253.176 81.28 253.212 80.768 253.212H79.4V256.5H77.876V247.8H80.744ZM79.4 249.024V251.964H80.816C81.104 251.964 81.372 251.948 81.62 251.916C81.868 251.884 82.084 251.82 82.268 251.724C82.452 251.628 82.596 251.488 82.7 251.304C82.804 251.112 82.856 250.86 82.856 250.548C82.856 250.196 82.796 249.92 82.676 249.72C82.556 249.512 82.396 249.36 82.196 249.264C82.004 249.16 81.78 249.096 81.524 249.072C81.268 249.04 81.008 249.024 80.744 249.024H79.4ZM89.1594 253.464C88.6474 253.512 88.2114 253.568 87.8514 253.632C87.4914 253.696 87.1954 253.776 86.9634 253.872C86.7314 253.968 86.5594 254.084 86.4474 254.22C86.3434 254.348 86.2914 254.504 86.2914 254.688C86.2914 254.968 86.3994 255.188 86.6154 255.348C86.8314 255.508 87.1194 255.588 87.4794 255.588C88.0074 255.588 88.4194 255.444 88.7154 255.156C89.0114 254.86 89.1594 254.372 89.1594 253.692V253.464ZM87.8034 249.852C88.2034 249.852 88.5714 249.9 88.9074 249.996C89.2514 250.092 89.5474 250.248 89.7954 250.464C90.0434 250.68 90.2314 250.964 90.3594 251.316C90.4954 251.668 90.5594 252.1 90.5514 252.612C90.5514 252.692 90.5474 252.8 90.5394 252.936C90.5394 253.064 90.5394 253.204 90.5394 253.356C90.5394 253.508 90.5354 253.668 90.5274 253.836C90.5274 253.996 90.5274 254.148 90.5274 254.292C90.5274 254.7 90.5434 255.104 90.5754 255.504C90.6074 255.896 90.6554 256.228 90.7194 256.5H89.4114C89.3874 256.364 89.3634 256.232 89.3394 256.104C89.3234 255.976 89.3074 255.8 89.2914 255.576C89.0914 255.936 88.8074 256.208 88.4394 256.392C88.0714 256.568 87.6474 256.656 87.1674 256.656C86.8154 256.656 86.4914 256.608 86.1954 256.512C85.9074 256.424 85.6554 256.296 85.4394 256.128C85.2314 255.96 85.0674 255.76 84.9474 255.528C84.8354 255.288 84.7794 255.02 84.7794 254.724C84.7794 254.324 84.8954 253.992 85.1274 253.728C85.3594 253.464 85.6714 253.248 86.0634 253.08C86.4634 252.912 86.9234 252.784 87.4434 252.696C87.9714 252.608 88.5314 252.532 89.1234 252.468V252.312C89.1234 252.04 89.0874 251.816 89.0154 251.64C88.9434 251.456 88.8434 251.312 88.7154 251.208C88.5954 251.096 88.4514 251.02 88.2834 250.98C88.1154 250.932 87.9314 250.908 87.7314 250.908C87.3634 250.908 87.0554 251.004 86.8074 251.196C86.5594 251.388 86.4274 251.68 86.4114 252.072H85.0074C85.0314 251.744 85.1154 251.444 85.2594 251.172C85.4034 250.9 85.5954 250.668 85.8354 250.476C86.0834 250.276 86.3714 250.124 86.6994 250.02C87.0354 249.908 87.4034 249.852 87.8034 249.852ZM91.6262 258.6V257.508H92.1662C92.3182 257.508 92.4502 257.5 92.5622 257.484C92.6822 257.476 92.7862 257.44 92.8742 257.376C92.9702 257.32 93.0542 257.232 93.1262 257.112C93.1982 256.992 93.2702 256.828 93.3422 256.62L93.4142 256.464L91.0742 250.044H92.6342L94.0982 254.676L95.5622 250.044H97.0262L94.7582 256.488C94.6062 256.904 94.4582 257.248 94.3142 257.52C94.1782 257.792 94.0182 258.008 93.8342 258.168C93.6502 258.328 93.4342 258.44 93.1862 258.504C92.9382 258.568 92.6342 258.6 92.2742 258.6H91.6262ZM99.2593 256.5H97.8313V250.044H99.2593V250.944C99.4433 250.608 99.6913 250.352 100.003 250.176C100.323 249.992 100.699 249.9 101.131 249.9C101.635 249.9 102.035 250 102.331 250.2C102.635 250.4 102.863 250.68 103.015 251.04C103.295 250.632 103.615 250.34 103.975 250.164C104.335 249.988 104.715 249.9 105.115 249.9C105.499 249.9 105.823 249.96 106.087 250.08C106.359 250.2 106.579 250.372 106.747 250.596C106.915 250.82 107.035 251.088 107.107 251.4C107.187 251.712 107.227 252.06 107.227 252.444V256.5H105.799V252.792C105.799 252.576 105.787 252.364 105.763 252.156C105.747 251.948 105.699 251.764 105.619 251.604C105.547 251.436 105.435 251.304 105.283 251.208C105.131 251.112 104.923 251.064 104.659 251.064C104.395 251.064 104.171 251.116 103.987 251.22C103.811 251.316 103.667 251.452 103.555 251.628C103.443 251.804 103.363 252.016 103.315 252.264C103.267 252.512 103.243 252.78 103.243 253.068V256.5H101.815V252.792C101.815 252.576 101.803 252.364 101.779 252.156C101.763 251.948 101.715 251.764 101.635 251.604C101.563 251.436 101.451 251.304 101.299 251.208C101.147 251.112 100.939 251.064 100.675 251.064C100.411 251.064 100.187 251.116 100.003 251.22C99.8273 251.316 99.6833 251.452 99.5713 251.628C99.4593 251.804 99.3793 252.016 99.3313 252.264C99.2833 252.512 99.2593 252.78 99.2593 253.068V256.5ZM111.514 256.656C110.986 256.656 110.518 256.564 110.11 256.38C109.71 256.196 109.374 255.948 109.102 255.636C108.838 255.324 108.634 254.96 108.49 254.544C108.354 254.128 108.286 253.688 108.286 253.224C108.286 252.736 108.362 252.292 108.514 251.892C108.666 251.484 108.878 251.132 109.15 250.836C109.422 250.54 109.75 250.312 110.134 250.152C110.518 249.984 110.946 249.9 111.418 249.9C111.922 249.9 112.37 249.996 112.762 250.188C113.154 250.38 113.482 250.644 113.746 250.98C114.01 251.316 114.206 251.716 114.334 252.18C114.462 252.636 114.51 253.136 114.478 253.68H109.738C109.746 253.936 109.794 254.176 109.882 254.4C109.978 254.616 110.102 254.804 110.254 254.964C110.406 255.124 110.582 255.248 110.782 255.336C110.99 255.424 111.214 255.468 111.454 255.468C112.23 255.468 112.746 255.168 113.002 254.568H114.406C114.334 254.824 114.222 255.08 114.07 255.336C113.918 255.584 113.722 255.808 113.482 256.008C113.25 256.2 112.97 256.356 112.642 256.476C112.314 256.596 111.938 256.656 111.514 256.656ZM111.418 251.016C111.218 251.016 111.018 251.048 110.818 251.112C110.626 251.176 110.45 251.276 110.29 251.412C110.138 251.54 110.01 251.708 109.906 251.916C109.802 252.116 109.746 252.356 109.738 252.636H113.026C113.018 252.388 112.97 252.164 112.882 251.964C112.794 251.756 112.678 251.584 112.534 251.448C112.39 251.312 112.222 251.208 112.03 251.136C111.838 251.056 111.634 251.016 111.418 251.016ZM117.095 250.944C117.279 250.608 117.535 250.352 117.863 250.176C118.199 249.992 118.595 249.9 119.051 249.9C119.443 249.9 119.775 249.96 120.047 250.08C120.327 250.2 120.555 250.372 120.731 250.596C120.907 250.82 121.035 251.088 121.115 251.4C121.203 251.712 121.247 252.06 121.247 252.444V256.5H119.819V252.792C119.819 252.576 119.807 252.364 119.783 252.156C119.759 251.948 119.703 251.764 119.615 251.604C119.535 251.436 119.411 251.304 119.243 251.208C119.083 251.112 118.867 251.064 118.595 251.064C118.323 251.064 118.091 251.116 117.899 251.22C117.707 251.316 117.551 251.452 117.431 251.628C117.311 251.804 117.223 252.016 117.167 252.264C117.119 252.512 117.095 252.78 117.095 253.068V256.5H115.667V250.044H117.095V250.944ZM122.938 248.34H124.366V250.044H125.662V251.076H124.366V254.592C124.366 254.92 124.418 255.14 124.522 255.252C124.626 255.356 124.83 255.408 125.134 255.408H125.65V256.5H124.594C124.25 256.5 123.97 256.476 123.754 256.428C123.538 256.372 123.37 256.28 123.25 256.152C123.13 256.024 123.046 255.852 122.998 255.636C122.958 255.412 122.938 255.136 122.938 254.808V251.076H121.978V250.044H122.938V248.34ZM129.781 248.34H131.209V250.044H132.505V251.076H131.209V254.592C131.209 254.92 131.261 255.14 131.365 255.252C131.469 255.356 131.673 255.408 131.977 255.408H132.493V256.5H131.437C131.093 256.5 130.813 256.476 130.597 256.428C130.381 256.372 130.213 256.28 130.093 256.152C129.973 256.024 129.889 255.852 129.841 255.636C129.801 255.412 129.781 255.136 129.781 254.808V251.076H128.821V250.044H129.781V248.34ZM136.452 256.656C135.924 256.656 135.456 256.564 135.048 256.38C134.648 256.196 134.312 255.948 134.04 255.636C133.776 255.324 133.572 254.96 133.428 254.544C133.292 254.128 133.224 253.688 133.224 253.224C133.224 252.736 133.3 252.292 133.452 251.892C133.604 251.484 133.816 251.132 134.088 250.836C134.36 250.54 134.688 250.312 135.072 250.152C135.456 249.984 135.884 249.9 136.356 249.9C136.86 249.9 137.308 249.996 137.7 250.188C138.092 250.38 138.42 250.644 138.684 250.98C138.948 251.316 139.144 251.716 139.272 252.18C139.4 252.636 139.448 253.136 139.416 253.68H134.676C134.684 253.936 134.732 254.176 134.82 254.4C134.916 254.616 135.04 254.804 135.192 254.964C135.344 255.124 135.52 255.248 135.72 255.336C135.928 255.424 136.152 255.468 136.392 255.468C137.168 255.468 137.684 255.168 137.94 254.568H139.344C139.272 254.824 139.16 255.08 139.008 255.336C138.856 255.584 138.66 255.808 138.42 256.008C138.188 256.2 137.908 256.356 137.58 256.476C137.252 256.596 136.876 256.656 136.452 256.656ZM136.356 251.016C136.156 251.016 135.956 251.048 135.756 251.112C135.564 251.176 135.388 251.276 135.228 251.412C135.076 251.54 134.948 251.708 134.844 251.916C134.74 252.116 134.684 252.356 134.676 252.636H137.964C137.956 252.388 137.908 252.164 137.82 251.964C137.732 251.756 137.616 251.584 137.472 251.448C137.328 251.312 137.16 251.208 136.968 251.136C136.776 251.056 136.572 251.016 136.356 251.016ZM144.133 251.496C143.893 251.472 143.665 251.46 143.449 251.46C143.225 251.46 143.025 251.488 142.849 251.544C142.673 251.592 142.525 251.68 142.405 251.808C142.285 251.928 142.193 252.096 142.129 252.312C142.065 252.528 142.033 252.796 142.033 253.116V256.5H140.605V250.044H142.009V251.196C142.185 250.836 142.421 250.556 142.717 250.356C143.021 250.148 143.369 250.04 143.761 250.032C143.817 250.032 143.877 250.036 143.941 250.044C144.013 250.044 144.077 250.048 144.133 250.056V251.496ZM146.462 256.5H145.034V250.044H146.462V250.944C146.646 250.608 146.894 250.352 147.206 250.176C147.526 249.992 147.902 249.9 148.334 249.9C148.838 249.9 149.238 250 149.534 250.2C149.838 250.4 150.066 250.68 150.218 251.04C150.498 250.632 150.818 250.34 151.178 250.164C151.538 249.988 151.918 249.9 152.318 249.9C152.702 249.9 153.026 249.96 153.29 250.08C153.562 250.2 153.782 250.372 153.95 250.596C154.118 250.82 154.238 251.088 154.31 251.4C154.39 251.712 154.43 252.06 154.43 252.444V256.5H153.002V252.792C153.002 252.576 152.99 252.364 152.966 252.156C152.95 251.948 152.902 251.764 152.822 251.604C152.75 251.436 152.638 251.304 152.486 251.208C152.334 251.112 152.126 251.064 151.862 251.064C151.598 251.064 151.374 251.116 151.19 251.22C151.014 251.316 150.87 251.452 150.758 251.628C150.646 251.804 150.566 252.016 150.518 252.264C150.47 252.512 150.446 252.78 150.446 253.068V256.5H149.018V252.792C149.018 252.576 149.006 252.364 148.982 252.156C148.966 251.948 148.918 251.764 148.838 251.604C148.766 251.436 148.654 251.304 148.502 251.208C148.35 251.112 148.142 251.064 147.878 251.064C147.614 251.064 147.39 251.116 147.206 251.22C147.03 251.316 146.886 251.452 146.774 251.628C146.662 251.804 146.582 252.016 146.534 252.264C146.486 252.512 146.462 252.78 146.462 253.068V256.5Z" fill="white"/>
<path d="M268.075 247.644C268.475 247.644 268.843 247.696 269.179 247.8C269.523 247.896 269.815 248.04 270.055 248.232C270.303 248.424 270.495 248.664 270.631 248.952C270.767 249.232 270.835 249.556 270.835 249.924C270.835 250.428 270.711 250.92 270.463 251.4C270.223 251.872 269.895 252.34 269.479 252.804C269.063 253.26 268.579 253.712 268.027 254.16C267.483 254.6 266.907 255.04 266.299 255.48H271.075V256.5H264.811V255.516C265.579 254.948 266.263 254.42 266.863 253.932C267.471 253.436 267.983 252.968 268.399 252.528C268.815 252.08 269.131 251.656 269.347 251.256C269.571 250.848 269.683 250.452 269.683 250.068C269.683 249.612 269.539 249.248 269.251 248.976C268.971 248.696 268.571 248.556 268.051 248.556C267.819 248.556 267.591 248.592 267.367 248.664C267.143 248.728 266.943 248.84 266.767 249C266.599 249.152 266.459 249.352 266.347 249.6C266.243 249.848 266.187 250.152 266.179 250.512H265.051C265.043 250.08 265.107 249.688 265.243 249.336C265.387 248.984 265.591 248.684 265.855 248.436C266.119 248.18 266.439 247.984 266.815 247.848C267.191 247.712 267.611 247.644 268.075 247.644ZM273.784 253.32H276.892V249.3L273.784 253.32ZM279.592 254.352H277.996V256.5H276.892V254.352H272.572V253.32L276.88 247.8H277.996V253.32H279.592V254.352ZM284.956 256.5H283.864V250.044H284.956V251.016C285.14 250.712 285.388 250.456 285.7 250.248C286.012 250.04 286.412 249.936 286.9 249.936C287.396 249.936 287.792 250.036 288.088 250.236C288.392 250.436 288.616 250.716 288.76 251.076C289.016 250.676 289.328 250.388 289.696 250.212C290.064 250.028 290.476 249.936 290.932 249.936C291.308 249.936 291.628 249.996 291.892 250.116C292.156 250.236 292.372 250.408 292.54 250.632C292.708 250.848 292.828 251.108 292.9 251.412C292.98 251.716 293.02 252.052 293.02 252.42V256.5H291.928V252.744C291.928 252.496 291.912 252.26 291.88 252.036C291.848 251.812 291.78 251.616 291.676 251.448C291.58 251.272 291.44 251.136 291.256 251.04C291.08 250.936 290.844 250.884 290.548 250.884C290.076 250.884 289.696 251.064 289.408 251.424C289.128 251.776 288.988 252.3 288.988 252.996V256.5H287.896V252.744C287.896 252.496 287.88 252.26 287.848 252.036C287.816 251.812 287.748 251.616 287.644 251.448C287.548 251.272 287.408 251.136 287.224 251.04C287.048 250.936 286.812 250.884 286.516 250.884C286.044 250.884 285.664 251.064 285.376 251.424C285.096 251.776 284.956 252.3 284.956 252.996V256.5ZM295.401 253.296C295.401 253.728 295.449 254.096 295.545 254.4C295.649 254.704 295.785 254.952 295.953 255.144C296.129 255.336 296.333 255.476 296.565 255.564C296.797 255.652 297.041 255.696 297.297 255.696C297.553 255.696 297.797 255.648 298.029 255.552C298.261 255.456 298.461 255.312 298.629 255.12C298.805 254.92 298.941 254.672 299.037 254.376C299.141 254.072 299.193 253.712 299.193 253.296C299.193 252.864 299.141 252.496 299.037 252.192C298.941 251.888 298.805 251.64 298.629 251.448C298.461 251.256 298.261 251.116 298.029 251.028C297.797 250.94 297.553 250.896 297.297 250.896C297.041 250.896 296.797 250.94 296.565 251.028C296.333 251.108 296.129 251.244 295.953 251.436C295.785 251.628 295.649 251.876 295.545 252.18C295.449 252.484 295.401 252.856 295.401 253.296ZM294.237 253.296C294.237 252.712 294.321 252.208 294.489 251.784C294.665 251.36 294.897 251.012 295.185 250.74C295.473 250.468 295.801 250.268 296.169 250.14C296.537 250.004 296.913 249.936 297.297 249.936C297.681 249.936 298.057 250.004 298.425 250.14C298.793 250.268 299.121 250.468 299.409 250.74C299.697 251.012 299.925 251.36 300.093 251.784C300.269 252.208 300.357 252.712 300.357 253.296C300.357 253.88 300.269 254.384 300.093 254.808C299.925 255.232 299.697 255.58 299.409 255.852C299.121 256.124 298.793 256.328 298.425 256.464C298.057 256.592 297.681 256.656 297.297 256.656C296.913 256.656 296.537 256.592 296.169 256.464C295.801 256.328 295.473 256.124 295.185 255.852C294.897 255.58 294.665 255.232 294.489 254.808C294.321 254.384 294.237 253.88 294.237 253.296ZM302.757 251.016C302.941 250.712 303.197 250.456 303.525 250.248C303.861 250.04 304.301 249.936 304.845 249.936C305.237 249.936 305.565 249.996 305.829 250.116C306.101 250.236 306.321 250.408 306.489 250.632C306.657 250.848 306.777 251.108 306.849 251.412C306.929 251.716 306.969 252.052 306.969 252.42V256.5H305.877V252.744C305.877 252.496 305.861 252.26 305.829 252.036C305.797 251.812 305.733 251.616 305.637 251.448C305.541 251.272 305.397 251.136 305.205 251.04C305.021 250.936 304.773 250.884 304.461 250.884C303.933 250.884 303.517 251.064 303.213 251.424C302.909 251.776 302.757 252.3 302.757 252.996V256.5H301.665V250.044H302.757V251.016ZM308.914 248.424H310.006V250.044H311.23V250.92H310.006V254.748C310.006 254.916 310.01 255.056 310.018 255.168C310.034 255.272 310.062 255.356 310.102 255.42C310.15 255.484 310.218 255.528 310.306 255.552C310.394 255.576 310.518 255.588 310.678 255.588H311.23V256.5H310.438C310.126 256.5 309.87 256.48 309.67 256.44C309.478 256.392 309.326 256.312 309.214 256.2C309.102 256.08 309.022 255.916 308.974 255.708C308.934 255.492 308.914 255.216 308.914 254.88V250.92H307.894V250.044H308.914V248.424ZM313.714 251.016C313.898 250.712 314.154 250.456 314.482 250.248C314.818 250.04 315.258 249.936 315.802 249.936C316.194 249.936 316.522 249.996 316.786 250.116C317.058 250.236 317.278 250.408 317.446 250.632C317.614 250.848 317.734 251.108 317.806 251.412C317.886 251.716 317.926 252.052 317.926 252.42V256.5H316.834V252.744C316.834 252.496 316.818 252.26 316.786 252.036C316.754 251.812 316.69 251.616 316.594 251.448C316.498 251.272 316.354 251.136 316.162 251.04C315.978 250.936 315.73 250.884 315.418 250.884C314.89 250.884 314.474 251.064 314.17 251.424C313.866 251.776 313.714 252.3 313.714 252.996V256.5H312.622V247.8H313.714V251.016ZM323.303 251.928C323.215 251.544 323.031 251.272 322.751 251.112C322.479 250.944 322.139 250.86 321.731 250.86C321.563 250.86 321.395 250.876 321.227 250.908C321.059 250.932 320.907 250.98 320.771 251.052C320.643 251.116 320.535 251.2 320.447 251.304C320.367 251.408 320.327 251.532 320.327 251.676C320.327 251.932 320.415 252.124 320.591 252.252C320.767 252.38 321.023 252.48 321.359 252.552L322.271 252.732C322.575 252.796 322.863 252.872 323.135 252.96C323.415 253.048 323.655 253.168 323.855 253.32C324.063 253.464 324.227 253.644 324.347 253.86C324.467 254.076 324.527 254.34 324.527 254.652C324.527 254.972 324.459 255.256 324.323 255.504C324.187 255.752 323.999 255.964 323.759 256.14C323.519 256.308 323.235 256.436 322.907 256.524C322.587 256.612 322.235 256.656 321.851 256.656C321.419 256.656 321.031 256.592 320.687 256.464C320.351 256.336 320.063 256.168 319.823 255.96C319.591 255.752 319.407 255.512 319.271 255.24C319.143 254.968 319.063 254.692 319.031 254.412H320.183C320.271 254.828 320.447 255.152 320.711 255.384C320.983 255.616 321.371 255.732 321.875 255.732C322.315 255.732 322.683 255.648 322.979 255.48C323.275 255.312 323.423 255.076 323.423 254.772C323.423 254.612 323.387 254.472 323.315 254.352C323.243 254.232 323.143 254.132 323.015 254.052C322.895 253.964 322.751 253.896 322.583 253.848C322.423 253.792 322.251 253.744 322.067 253.704L321.107 253.512C320.875 253.464 320.647 253.4 320.423 253.32C320.199 253.24 319.995 253.132 319.811 252.996C319.635 252.86 319.491 252.692 319.379 252.492C319.275 252.284 319.223 252.028 319.223 251.724C319.223 251.436 319.291 251.184 319.427 250.968C319.563 250.744 319.747 250.556 319.979 250.404C320.219 250.244 320.499 250.124 320.819 250.044C321.139 249.964 321.483 249.924 321.851 249.924C322.579 249.924 323.167 250.104 323.615 250.464C324.063 250.824 324.339 251.312 324.443 251.928H323.303Z" fill="white"/>
</g>
<defs>
<filter id="filter0_b_2986_203399" x="-128" y="-128" width="606" height="605" filterUnits="userSpaceOnUse" color-interpolation-filters="sRGB">
<feFlood flood-opacity="0" result="BackgroundImageFix"/>
<feGaussianBlur in="BackgroundImageFix" stdDeviation="64"/>
<feComposite in2="SourceAlpha" operator="in" result="effect1_backgroundBlur_2986_203399"/>
<feBlend mode="normal" in="SourceGraphic" in2="effect1_backgroundBlur_2986_203399" result="shape"/>
</filter>
<linearGradient id="paint0_linear_2986_203399" x1="175" y1="1" x2="175" y2="348" gradientUnits="userSpaceOnUse">
<stop/>
<stop offset="1"/>
</linearGradient>
<linearGradient id="paint1_linear_2986_203399" x1="297" y1="29" x2="297" y2="45" gradientUnits="userSpaceOnUse">
<stop stop-color="white"/>
<stop offset="1" stop-color="white"/>
</linearGradient>
<linearGradient id="paint2_linear_2986_203399" x1="45" y1="180" x2="45" y2="220" gradientUnits="userSpaceOnUse">
<stop stop-color="white"/>
<stop offset="1" stop-color="white"/>
</linearGradient>
<linearGradient id="paint3_linear_2986_203399" x1="45" y1="232" x2="45" y2="272" gradientUnits="userSpaceOnUse">
<stop stop-color="white"/>
<stop offset="1" stop-color="white"/>
</linearGradient>
</defs>
</svg>
