<svg width="181" height="29" viewBox="0 0 181 29" fill="none" xmlns="http://www.w3.org/2000/svg">
<path d="M44.0551 15.062C43.2931 15.7826 42.257 16.1429 40.9467 16.1429H37.2528V20.7621H35.6243V7.98853H41.0261C42.3992 7.98853 43.4387 8.36208 44.1449 9.10918C44.851 9.85627 45.2016 10.8575 45.1967 12.1127C45.1967 13.3553 44.8162 14.3384 44.0551 15.062ZM42.8341 14.1396C43.3245 13.65 43.5697 12.9759 43.5697 12.1171C43.5697 11.2046 43.3382 10.504 42.8753 10.0154C42.4124 9.52679 41.7171 9.282 40.7893 9.28102H37.2587V14.8725H40.6951C41.6317 14.8705 42.3447 14.6248 42.8341 14.1352V14.1396Z" fill="#A5A8B6"/>
<path d="M47.0842 20.7577H45.3954L50.2617 7.98853H52.1741L57.0199 20.7577H55.3458L53.9954 17.2489H48.4346L47.0842 20.7577ZM48.7127 15.9594H53.6967L51.1959 9.39705L48.7127 15.9594Z" fill="#A5A8B6"/>
<path d="M61.8833 15.999L57.3112 7.98853H59L62.6939 14.6111L66.3878 7.98853H68.0751L63.5148 15.999V20.7577H61.8833V15.999Z" fill="#A5A8B6"/>
<path d="M71.9676 10.5265V20.7577H70.3597V7.98853H72.1073L76.4367 16.8523L80.7661 7.98853H82.5138V20.7577H80.9044V10.5265L76.9928 18.537H75.8998L71.9676 10.5265Z" fill="#A5A8B6"/>
<path d="M85.89 7.98853H94.5282V9.27808H87.5185V13.7401H93.8132V15.0091H87.5185V19.4902H94.5282V20.7592H85.89V7.98853Z" fill="#A5A8B6"/>
<path d="M99.1356 20.7577H97.5071V7.98853H98.9782L106.267 18.2594V7.98853H107.896V20.7577H106.404L99.1356 10.5089V20.7577Z" fill="#A5A8B6"/>
<path d="M116.355 20.7577H114.726V9.27808H110.476V7.98853H120.605V9.27808H116.355V20.7577Z" fill="#A5A8B6"/>
<path d="M129.709 20.0438C128.883 20.6518 127.661 20.9558 126.045 20.9558C124.456 20.9558 123.172 20.76 122.192 20.3684V18.9216C123.381 19.3617 124.639 19.5832 125.907 19.5752C127.083 19.5752 127.947 19.4166 128.499 19.0994C129.05 18.7821 129.324 18.2269 129.322 17.4338C129.342 17.0144 129.22 16.6005 128.975 16.2588C128.682 15.9179 128.305 15.6584 127.882 15.5054C127.175 15.2367 126.448 15.0212 125.708 14.8606C124.305 14.5169 123.318 14.0763 122.748 13.5387C122.178 13.0012 121.894 12.2609 121.895 11.318C121.895 10.2077 122.296 9.34501 123.097 8.7301C123.898 8.11519 125.079 7.80774 126.641 7.80774C127.309 7.80595 127.976 7.85505 128.637 7.95461C129.159 8.02661 129.674 8.14307 130.176 8.3027V9.73031C129.125 9.3605 128.019 9.1737 126.905 9.17807C125.78 9.17807 124.936 9.34355 124.374 9.6745C123.812 10.0055 123.528 10.5474 123.522 11.3004C123.502 11.6731 123.606 12.042 123.816 12.3505C124.015 12.6149 124.35 12.844 124.819 13.035C125.502 13.2915 126.202 13.5001 126.914 13.6592C128.41 14.0156 129.456 14.4949 130.052 15.0971C130.648 15.6992 130.946 16.4757 130.946 17.4265C130.949 18.5633 130.537 19.4357 129.709 20.0438Z" fill="#A5A8B6"/>
<path d="M135.717 7.98853H141.437C143.476 7.98853 145.021 8.50063 146.074 9.52483C147.126 10.549 147.651 12.1916 147.648 14.4524C147.648 16.6066 147.122 18.1962 146.069 19.2214C145.017 20.2466 143.471 20.7587 141.432 20.7577H135.717V7.98853ZM140.96 17.9025C141.511 17.9219 142.06 17.8217 142.568 17.6087C143 17.3951 143.337 17.0286 143.512 16.5806C143.73 16.0852 143.839 15.3748 143.839 14.4495C143.839 13.5242 143.741 12.7942 143.545 12.2596C143.39 11.7877 143.059 11.3933 142.621 11.1581C142.205 10.9466 141.653 10.8408 140.963 10.8408H139.451V17.8995L140.96 17.9025Z" fill="#A5A8B6"/>
<path d="M149.54 7.98853H153.273V20.7577H149.54V7.98853Z" fill="#A5A8B6"/>
<path d="M155.159 7.98853H159.052L162.03 16.4352L165.006 7.98853H168.92L164.014 20.7577H160.062L155.159 7.98853Z" fill="#A5A8B6"/>
<path d="M170.808 7.98853H180.5V10.8438H174.542V12.9264H179.766V15.8213H174.542V17.9025H180.5V20.7577H170.808V7.98853Z" fill="#A5A8B6"/>
<path d="M15.4396 17.5029H11.8972V11.1139H15.4278C15.5323 11.1139 15.6823 11.1139 15.7338 11.1139C15.7853 11.1139 15.8353 11.1139 15.8691 11.1257C17.2446 11.3093 18.3126 12.6605 18.3126 14.3011C18.3126 15.9416 17.2299 17.3134 15.8382 17.4853C15.8118 17.4853 15.7735 17.4941 15.7044 17.5C15.6352 17.5058 15.5043 17.5014 15.4396 17.5029Z" fill="#A5A8B6"/>
<path d="M7.77813 17.7484V6.98404H15.4366C17.4697 6.98404 18.1243 7.42466 18.1243 7.42466L22.7361 2.97439C20.0108 1.02216 16.6788 0.101362 13.3359 0.376623C9.99295 0.651884 6.85708 2.10526 4.48888 4.4769C2.12069 6.84855 0.674581 9.98384 0.409101 13.3222C0.143621 16.6606 1.07608 19.9845 3.03976 22.6995L7.77813 17.7484Z" fill="#A5A8B6"/>
<path d="M25.8696 6.063L21.4387 10.4809C21.4387 10.4809 21.6373 10.9083 21.9477 11.7C22.3886 12.7897 22.5313 13.9769 22.3611 15.1398C22.1831 16.5542 21.7726 18.2359 20.3633 19.6811C18.954 21.1263 17.5683 21.5728 15.8677 21.6066C14.1671 21.6404 10.2952 21.6066 10.2952 21.6066L6.07613 25.7719C8.79551 27.7864 12.1489 28.759 15.5261 28.5129C18.9032 28.2668 22.0796 26.8183 24.4772 24.431C26.8748 22.0436 28.3341 18.8762 28.5897 15.5051C28.8452 12.134 27.88 8.78341 25.8696 6.063Z" fill="#A5A8B6"/>
</svg>
