<svg width="102" height="22" viewBox="0 0 102 22" fill="none" xmlns="http://www.w3.org/2000/svg">
<path d="M4.40505 3.37708V9.86293H11.3487V12.147H4.40505V21.5221H0.549316V1.05888H12.1756V3.37708H4.40505Z" fill="#A5A8B6"/>
<path d="M13.7618 21.5137V5.49081H17.4656V21.5137H13.7618Z" fill="#A5A8B6"/>
<path d="M30.2309 21.5136V10.0675C30.2309 8.01354 28.3494 7.23796 26.2317 7.23796C25.2175 7.2457 24.2114 7.42133 23.2535 7.75785V21.5136H19.5749V6.23227C21.7747 5.43594 24.0977 5.04339 26.4342 5.07317C30.9396 5.07317 33.9432 6.49648 33.9432 10.0079V21.5136H30.2309Z" fill="#A5A8B6"/>
<path d="M39.0982 14.738C39.4526 17.917 41.3425 19.5193 44.5148 19.5193C46.1796 19.5464 47.8326 19.2334 49.3745 18.5988L50.2604 20.7721C48.3408 21.5826 46.2742 21.9774 44.1942 21.9312C38.9295 21.9312 35.5378 18.9568 35.5378 13.4596C35.5378 8.16691 38.6932 5.07314 43.4602 5.07314C48.2271 5.07314 50.9016 7.89418 50.9016 13.2806L39.0982 14.738ZM43.3167 7.1527C40.7856 7.1527 38.786 9.02771 38.8788 13.0079L47.3159 11.9084C47.3412 8.61009 45.755 7.1527 43.3083 7.1527H43.3167Z" fill="#A5A8B6"/>
<path d="M62.9836 21.5136L58.976 15.4283H58.9169L54.8502 21.5221H50.9354L57.1198 13.1698L51.5851 5.49927H55.618L59.2375 10.9368H59.2966L63.0342 5.49927H66.6537L61.0009 12.9908L67.2443 21.5136H62.9836Z" fill="#A5A8B6"/>
<path d="M74.5929 21.8715C70.9734 21.8715 69.5897 19.6982 69.5897 17.5249V7.57031H67.202V5.49075H69.615V1.89413L73.2683 0.939575V5.49075H76.6431V7.57031H73.2683V17.3545C73.2552 17.6649 73.309 17.9746 73.4259 18.262C73.5429 18.5495 73.7201 18.8078 73.9455 19.0193C74.1709 19.2308 74.4391 19.3904 74.7315 19.487C75.0239 19.5836 75.3335 19.615 75.6391 19.5789C75.9784 19.5726 76.3156 19.5239 76.6431 19.434V21.5392C75.9862 21.778 75.2908 21.8908 74.5929 21.8715Z" fill="#A5A8B6"/>
<path d="M86.9953 7.59591C85.4792 7.17583 83.8723 7.23232 82.3887 7.75785V21.5136H78.727V6.23227C81.0582 5.35582 83.5401 4.96165 86.0251 5.07317C86.6494 5.07317 87.4087 5.13283 87.7968 5.15839L86.9953 7.59591Z" fill="#A5A8B6"/>
<path d="M94.9094 21.9312C89.8471 21.9312 87.4679 20.0562 87.4679 16.9965C87.4679 12.684 92.3192 11.5249 98.0901 11.0306V10.1271C98.0901 7.92827 96.4702 7.27202 94.1163 7.27202C92.513 7.28873 90.9262 7.60065 89.4337 8.19248L88.59 6.23223C90.5735 5.46976 92.6774 5.07703 94.7997 5.07314C98.6301 5.07314 101.549 6.53053 101.549 10.63V20.7721C99.4366 21.6089 97.1776 22.0033 94.9094 21.9312ZM98.0901 12.6499C93.821 13.0675 90.9693 13.809 90.9693 16.9113C90.9693 19.0846 92.6567 20.0051 95.1878 20.0051C96.1757 20.0255 97.1574 19.8428 98.0732 19.4681L98.0901 12.6499Z" fill="#A5A8B6"/>
<path d="M13.7618 3.36004V1.05888H17.4656V3.36004H13.7618Z" fill="#A5A8B6"/>
</svg>
