<svg width="55" height="34" viewBox="0 0 55 34" fill="none" xmlns="http://www.w3.org/2000/svg">
<path d="M54.4367 0.87915V33.7974H48.9174V32.7644H53.407V1.91186H1.83287V6.32389H0.803223V0.87915H54.4367ZM11.0664 25.6676C10.9944 28.553 10.2754 29.7072 8.54984 29.7072C6.64429 29.7072 6.13994 28.5892 6.13994 24.2247V17.2994C6.13994 12.9352 6.60729 11.817 8.4408 11.817C10.025 11.817 10.5285 12.5751 10.7795 15.4245H15.6337C15.5616 13.2604 15.3101 11.9621 14.6987 10.8438C13.5124 8.64341 11.3912 7.52555 8.26318 7.52555C5.63874 7.52555 3.73323 8.28281 2.47492 9.79935C1.28864 11.206 0.82101 13.2245 0.82101 16.9051V24.6216C0.82101 27.94 1.21663 29.9236 2.15132 31.2945C3.40961 33.0982 5.49492 34 8.40723 34C11.3553 34 13.4046 33.0623 14.6628 31.0784C15.5258 29.78 15.8494 28.3012 15.9211 25.6673L11.0664 25.6676ZM17.6958 33.7974H23.018V22.9983H29.2377V18.6341H23.018V12.2136H30.568V7.84937H17.697L17.6958 33.7974ZM32.0094 25.1987C32.0094 28.0122 32.3327 29.6712 33.1239 31.0415C34.3463 33.0974 36.3595 33.9992 39.8827 33.9992C43.1533 33.9992 45.0599 33.2419 46.3185 31.4744C47.3252 30.0678 47.7206 28.3003 47.7206 25.1984V16.2535C47.7206 13.44 47.3969 11.7807 46.606 10.4107C45.3838 8.3542 43.3701 7.45186 39.883 7.45186C36.5755 7.45186 34.6699 8.20944 33.4116 9.97666C32.405 11.3841 32.0094 13.1507 32.0094 16.2535V25.1987ZM42.3996 24.767C42.3996 28.7706 41.8961 29.7083 39.8827 29.7083C37.8335 29.7083 37.3294 28.7706 37.3294 24.767V16.6861C37.3294 12.6825 37.8326 11.7447 39.8827 11.7447C41.8961 11.7447 42.3996 12.6825 42.3996 16.6861V24.767Z" fill="#A5A8B6"/>
</svg>
