<svg width="109" height="29" viewBox="0 0 109 29" fill="none" xmlns="http://www.w3.org/2000/svg">
<path d="M62.0071 9.69977C62.0071 6.52167 62.0618 3.56274 62.2261 0.822998L53.8463 2.41205V3.17918L54.6678 3.28877C55.2703 3.34356 55.6537 3.56274 55.8728 3.89151C56.0919 4.27508 56.2562 4.82303 56.3657 5.64495C56.4753 7.234 56.5848 10.8505 56.53 16.5491C56.53 22.193 56.4753 25.7547 56.3657 27.1246C59.3781 27.7821 61.7332 28.0561 63.4859 28.0561C66.7721 28.0561 69.3463 27.1246 71.2085 25.2067C73.0707 23.3437 74.0565 20.7135 74.0565 17.4806C74.0565 14.9053 73.3445 12.7683 71.9205 11.0696C70.4965 9.371 68.689 8.54908 66.553 8.54908C65.129 8.54908 63.6502 8.93264 62.0071 9.69977ZM62.1714 26.5766C62.0618 24.8232 61.9523 19.5629 61.9523 10.9601C62.4452 10.7957 63.1025 10.6861 63.924 10.6861C65.2385 10.6861 66.2791 11.3436 67.0459 12.7135C67.8127 14.0834 68.1961 15.7272 68.1961 17.8094C68.1961 20.3848 67.7579 22.467 66.8816 24.2204C66.0053 25.9191 64.9099 26.7958 63.5406 26.7958C63.1025 26.6862 62.6643 26.6314 62.1714 26.5766ZM22.4081 1.37095H0.5V2.46685L1.65018 2.57644C2.5265 2.74082 3.12898 3.06959 3.51237 3.56274C3.89576 4.11069 4.11484 4.98741 4.16961 6.1929C4.60777 12.1107 4.60777 17.645 4.16961 22.741C4.06007 23.9464 3.84099 24.8232 3.51237 25.3711C3.12898 25.9191 2.5265 26.2478 1.65018 26.3574L0.5 26.5218V27.6177H14.6307V26.5218L13.1519 26.4122C12.2756 26.3026 11.6731 25.9191 11.2898 25.4259C10.9064 24.878 10.6873 24.0012 10.6325 22.7958C10.4682 20.604 10.3587 18.0834 10.3587 15.2889L13.3163 15.3436C14.9046 15.3984 16 16.6039 16.5477 19.0149H17.6431V10.0833H16.5477C16 12.4395 14.9594 13.645 13.3163 13.6998L10.3587 13.7546C10.3587 8.82305 10.4682 5.31618 10.6325 3.17918H14.9594C18.0265 3.17918 20.1078 5.1518 21.3127 9.09703L22.6272 8.71346L22.4081 1.37095ZM19.8339 18.2478C19.8339 21.0971 20.6555 23.4533 22.2438 25.3163C23.8322 27.1793 26.1873 28.0561 29.1449 28.0561C32.1025 28.0561 34.5124 27.1246 36.265 25.2067C38.0177 23.3437 38.8392 20.9875 38.8392 18.1382C38.8392 15.2889 38.0177 12.9327 36.4293 11.0696C34.841 9.20662 32.4859 8.3299 29.5283 8.3299C26.5707 8.3299 24.1608 9.26141 22.4081 11.1792C20.6555 13.0423 19.8339 15.3984 19.8339 18.2478ZM32.0477 12.0012C32.7049 13.5902 32.9788 15.6724 32.9788 18.193C32.9788 24.0012 31.7738 26.8506 29.4187 26.8506C28.2138 26.8506 27.2827 26.0287 26.6254 24.3848C25.9682 22.741 25.6943 20.6588 25.6943 18.193C25.6943 12.4395 26.8993 9.59018 29.2544 9.59018C30.4594 9.53539 31.3905 10.3573 32.0477 12.0012ZM78.3286 25.3163C80.136 27.1246 82.4364 28.0561 85.1749 28.0561C86.8728 28.0561 88.3516 27.7273 89.6661 27.015C90.9806 26.3574 92.0212 25.5355 92.7332 24.5492L92.1855 23.8917C90.9806 24.8232 89.6113 25.2615 88.023 25.2615C85.8322 25.2615 84.1343 24.5492 82.9841 23.0697C81.7792 21.5903 81.2314 19.7272 81.341 17.3163H93.0618C93.0618 14.6861 92.4046 12.5491 91.0353 10.8505C89.6661 9.20662 87.7491 8.3847 85.2844 8.3847C82.2173 8.3847 79.8622 9.371 78.1643 11.2888C76.4664 13.2066 75.6449 15.5628 75.6449 18.3574C75.6449 21.2067 76.5212 23.5081 78.3286 25.3163ZM82.3816 11.5628C82.9841 10.2477 83.7509 9.59018 84.7915 9.59018C86.4346 9.59018 87.2562 11.6724 87.2562 15.8916L81.4505 16.0012C81.5053 14.3573 81.7791 12.8779 82.3816 11.5628ZM107.795 9.371C106.316 8.71346 104.454 8.3299 102.208 8.3299C99.9081 8.3299 98.1007 8.93264 96.7314 10.0833C95.3622 11.234 94.6502 12.6587 94.6502 14.3573C94.6502 15.8368 95.0883 16.9875 95.9099 17.8094C96.7314 18.6313 98.0459 19.3437 99.7438 19.9464C101.277 20.4944 102.373 21.0423 102.92 21.5355C103.468 22.0834 103.797 22.6862 103.797 23.5081C103.797 24.2752 103.523 24.9876 102.92 25.5355C102.373 26.1382 101.606 26.4122 100.62 26.4122C98.2102 26.4122 96.4028 24.6588 95.1431 21.1519L94.212 21.4259L94.4311 26.9054C96.4028 27.6725 98.5936 28.0561 101.004 28.0561C103.523 28.0561 105.44 27.5081 106.864 26.3574C108.288 25.2615 109 23.6725 109 21.6999C109 20.3848 108.671 19.2889 107.959 18.467C107.247 17.645 106.097 16.9327 104.454 16.2752C102.647 15.6176 101.387 15.0149 100.73 14.4669C100.072 13.919 99.7438 13.2614 99.7438 12.4395C99.7438 11.6176 99.9629 10.9601 100.456 10.4121C100.949 9.86416 101.551 9.64498 102.318 9.64498C104.509 9.64498 106.097 11.234 107.083 14.3573L108.014 14.0834L107.795 9.371ZM55.106 8.87785C54.3392 8.49429 53.5177 8.3299 52.5866 8.3299C51.6555 8.3299 50.7244 8.71346 49.6837 9.48059C48.6431 10.2477 47.8763 11.2888 47.2738 12.7135L47.3286 8.3299L39.0035 9.97375V10.7409L39.8251 10.7957C40.8657 10.9053 41.4682 11.7272 41.5777 13.2066C41.9064 16.6039 41.9064 20.2204 41.5777 24.056C41.4682 25.5355 40.8657 26.3026 39.8251 26.467L39.0035 26.5766V27.6177H50.6148V26.5766L49.136 26.467C48.0954 26.3574 47.4929 25.5355 47.3834 24.056C47.0548 20.8779 47 17.4806 47.2738 13.9738C47.6025 13.4258 48.3145 13.0971 49.4099 12.9875C50.5053 12.8779 51.765 13.2066 53.0795 13.9738L55.106 8.87785Z" fill="#A5A8B6"/>
</svg>
