<svg width="94" height="30" viewBox="0 0 94 30" fill="none" xmlns="http://www.w3.org/2000/svg">
<path d="M28.5916 29.9876C28.4842 29.9644 28.3767 29.9366 28.2684 29.9181C27.7043 29.8209 27.217 29.5726 26.8169 29.1641C25.6739 27.998 24.5337 26.829 23.3925 25.661C22.1439 24.3828 20.8962 23.1036 19.6476 21.8244C19.5921 21.7679 19.5393 21.7096 19.4763 21.6429C21.0472 19.9942 22.6089 18.3547 24.2002 16.6837C24.2475 16.7485 24.2789 16.8013 24.3206 16.8458C28.2758 21.0436 32.2318 25.2405 36.1879 29.4383C36.2129 29.4652 36.2398 29.4911 36.2629 29.5198C36.3815 29.6643 36.3676 29.8042 36.224 29.9191C36.1962 29.9413 36.1684 29.9644 36.1397 29.9876H28.5888H28.5916Z" fill="#A5A8B6"/>
<path d="M93.734 13.6455H91.8509V10.1869H88.3413C88.3227 10.4147 88.3348 10.6407 88.3329 10.8658C88.3311 11.0937 88.3329 11.3215 88.3329 11.5494C88.3329 11.7838 88.3329 12.0172 88.3329 12.2515V13.6446C87.704 13.6483 87.0843 13.6455 86.4693 13.6465C86.4295 13.4983 86.4211 5.22119 86.4591 5.00815H88.3264C88.3403 5.22953 88.3311 5.45461 88.3329 5.67969C88.3348 5.90755 88.3329 6.13541 88.3329 6.36327V7.02833C88.3329 7.25619 88.3329 7.48405 88.3329 7.71191V8.38993C88.4737 8.43532 91.6156 8.44551 91.849 8.40105V4.99426H93.734V13.6455Z" fill="#A5A8B6"/>
<path d="M23.9105 13.8938C22.4127 12.4145 20.9502 10.9686 19.4793 9.51534C19.5237 9.4644 19.558 9.42179 19.595 9.38196C22.0209 6.80695 24.4487 4.2338 26.8727 1.65694C27.1978 1.31052 27.572 1.05394 28.0398 0.952052C28.1898 0.919633 28.3445 0.894624 28.4964 0.894624C31.0807 0.890919 33.665 0.891845 36.2492 0.891845C36.2798 0.891845 36.3113 0.889993 36.3419 0.894624C36.4391 0.909444 36.4762 0.985398 36.4224 1.06784C36.3956 1.10859 36.3576 1.14194 36.3233 1.17713C34.1198 3.42795 31.9162 5.67784 29.7135 7.92865C27.8082 9.87566 25.902 11.8227 23.9976 13.7697C23.9679 13.8002 23.9475 13.841 23.9105 13.8938Z" fill="#A5A8B6"/>
<path d="M13.6475 15.4203L0.375984 29.6625C0.341712 29.6977 0.303735 29.731 0.276874 29.7718C0.223151 29.8542 0.259275 29.9301 0.357458 29.945C0.388025 29.9496 0.418592 29.9477 0.450085 29.9477C3.03435 29.9477 5.61862 29.9477 8.20289 29.945C8.35573 29.945 8.51041 29.92 8.65954 29.8875C9.1273 29.7857 9.50151 29.5281 9.82663 29.1827L22.7813 15.424L9.8257 1.65786C9.50059 1.31144 9.12638 1.05487 8.65862 0.952979C8.50856 0.92056 8.35388 0.89555 8.20197 0.89555C5.6177 0.891845 3.03343 0.891845 0.449158 0.891845C0.418592 0.891845 0.387099 0.889993 0.356532 0.894624C0.259275 0.910371 0.223151 0.985398 0.276874 1.06876C0.303735 1.10952 0.341712 1.14286 0.375984 1.17806L13.6475 15.4203Z" fill="#A5A8B6"/>
<path d="M44.7736 22.2199V17.0014C44.9246 16.9616 46.4186 16.9532 46.6382 16.9894V25.6064C46.5752 25.6101 46.5159 25.6156 46.4566 25.6156C46.05 25.6156 45.6424 25.6101 45.2358 25.6193C45.0932 25.6221 45.0024 25.5795 44.9135 25.4628C43.625 23.764 42.3301 22.0699 41.0371 20.3748C40.9861 20.3072 40.9333 20.2415 40.8852 20.1785C40.8638 20.1868 40.8574 20.1877 40.8527 20.1914C40.849 20.1951 40.8462 20.2016 40.8453 20.2072C40.8425 20.2257 40.8398 20.2433 40.8398 20.2618C40.8388 22.0236 40.8379 23.7853 40.837 25.548C40.837 25.5536 40.8351 25.56 40.8333 25.5656C40.8314 25.5712 40.8305 25.5776 40.8286 25.5832C40.7017 25.624 39.3374 25.6397 38.9909 25.6045C38.9493 25.4683 38.9289 17.4849 38.9706 16.981C39.0252 16.9773 39.0836 16.9699 39.1419 16.9699C39.6106 16.969 40.0793 16.9736 40.548 16.9662C40.673 16.9643 40.7481 17.006 40.8231 17.1051C42.0708 18.7492 43.3231 20.3906 44.5745 22.0328C44.6263 22.1005 44.6782 22.1672 44.7301 22.2348C44.7449 22.2301 44.7588 22.2246 44.7736 22.2199Z" fill="#A5A8B6"/>
<path d="M57.0474 5.00816H58.9036V13.6391C58.8462 13.6409 58.786 13.6455 58.7267 13.6455C58.3071 13.6455 57.8875 13.6409 57.4688 13.6493C57.3438 13.652 57.2688 13.6094 57.1947 13.5112C55.9044 11.8134 54.6113 10.1193 53.3182 8.42329C53.2636 8.35104 53.2071 8.27972 53.133 8.21488C53.0987 8.44552 53.1089 8.6706 53.1071 8.89568C53.1052 9.11706 53.1071 9.33936 53.1071 9.56073V12.9425C53.1071 13.1695 53.1071 13.3955 53.1071 13.6335H51.2647C51.223 13.5029 51.2119 5.23602 51.2564 4.99704C51.312 4.99704 51.3722 4.99704 51.4324 4.99704C51.889 4.99704 52.3448 5.00168 52.8014 4.99427C52.932 4.99241 53.0135 5.03132 53.0932 5.13598C54.3483 6.79029 55.608 8.44181 56.8668 10.0933C56.9112 10.1517 56.9575 10.2073 57.0103 10.274C57.0715 10.1999 57.0474 10.1248 57.0474 10.0572C57.0492 8.44922 57.0483 6.84123 57.0483 5.23324V5.00631L57.0474 5.00816Z" fill="#A5A8B6"/>
<path d="M69.0258 13.6326V5.00813H75.9607C75.9246 5.06648 75.8968 5.1165 75.8644 5.16282C75.5476 5.62595 75.2271 6.08537 74.9159 6.55221C74.8464 6.65595 74.7732 6.69578 74.6473 6.69578C73.4756 6.69115 72.3038 6.693 71.1312 6.693C71.0645 6.693 70.9978 6.693 70.9172 6.693V8.44271C71.3692 8.44641 71.8166 8.44363 72.264 8.44456C72.7142 8.44456 73.1643 8.44456 73.6145 8.44456H74.9557C74.9974 8.60017 75.003 9.92936 74.9641 10.1378H70.9154V11.9449C71.3035 11.9708 71.6897 11.9532 72.0751 11.956C72.4632 11.9597 72.8522 11.956 73.2412 11.956H74.4074C74.7955 11.956 75.1827 11.956 75.5661 11.956C75.6115 12.0959 75.6263 13.325 75.5884 13.6316H69.0267L69.0258 13.6326Z" fill="#A5A8B6"/>
<path d="M48.7378 25.6063V16.9986C48.8796 16.9615 54.9456 16.9485 55.23 16.9819C55.2708 17.118 55.2763 18.4574 55.2309 18.6529C54.4668 18.6529 53.697 18.6529 52.9273 18.6529C52.1576 18.6529 51.4008 18.6529 50.6265 18.6529V20.4128C51.9798 20.4146 53.3275 20.4128 54.7011 20.4137C54.7122 20.9741 54.7039 21.5243 54.7067 22.0967C54.2408 22.1097 53.7934 22.1013 53.346 22.1032C52.8958 22.105 52.4457 22.1032 51.9955 22.1032H50.6496C50.6089 22.244 50.5978 23.6473 50.6357 23.9233C51.1906 23.927 51.7491 23.9242 52.3077 23.9251C52.869 23.9251 53.4303 23.9251 53.9916 23.9251C54.5529 23.9251 55.1133 23.9251 55.6941 23.9251C55.6691 23.9761 55.6561 24.015 55.6339 24.0483C55.3032 24.5318 54.9707 25.0126 54.6428 25.4979C54.5853 25.5832 54.5223 25.6184 54.4168 25.6184C52.5726 25.6156 50.7284 25.6165 48.8842 25.6156C48.8416 25.6156 48.7999 25.6109 48.7397 25.6063H48.7378Z" fill="#A5A8B6"/>
<path d="M65.8137 16.9773H67.7134V17.2005C67.7134 18.7409 67.7134 20.2813 67.7134 21.8217C67.7134 22.1125 67.7403 22.3996 67.8153 22.6812C68.0302 23.4843 68.5906 23.9437 69.4224 23.9937C69.7521 24.0141 70.0754 23.9789 70.3848 23.8567C70.8868 23.6584 71.1869 23.2805 71.3407 22.7748C71.4324 22.4719 71.4574 22.1597 71.4574 21.8439C71.4555 20.3035 71.4574 18.7631 71.4574 17.2228C71.4574 17.1496 71.4574 17.0755 71.4574 17.006C71.5926 16.9606 73.0209 16.9449 73.3386 16.9847C73.3432 17.0338 73.3525 17.0866 73.3534 17.1394C73.3534 18.7604 73.3562 20.3804 73.3534 22.0014C73.3525 22.534 73.2728 23.0564 73.0922 23.5612C72.7328 24.5643 72.0446 25.2331 71.0267 25.5415C70.0967 25.824 69.151 25.8324 68.2155 25.573C67.0317 25.246 66.3009 24.4587 65.9813 23.2805C65.8581 22.8248 65.8174 22.3598 65.8174 21.8902C65.8164 20.3193 65.8174 18.7474 65.8174 17.1765V16.9764L65.8137 16.9773Z" fill="#A5A8B6"/>
<path d="M74.7075 24.3521C75.0817 23.9038 75.4485 23.4657 75.8255 23.0146C75.8848 23.0581 75.9385 23.0961 75.9904 23.1359C76.4582 23.4972 76.9593 23.7936 77.5363 23.9427C78.0013 24.0631 78.4709 24.1113 78.9442 23.9974C79.0739 23.9659 79.2017 23.9112 79.3185 23.8464C79.7594 23.6 79.8214 22.8979 79.3268 22.6237C79.1184 22.5079 78.897 22.407 78.6691 22.3347C78.2347 22.1967 77.792 22.0865 77.3548 21.9605C76.9639 21.8484 76.5795 21.7151 76.2201 21.5215C75.7301 21.2575 75.3494 20.8944 75.1818 20.3497C74.9947 19.743 74.9919 19.1336 75.2142 18.5361C75.4939 17.7868 76.0534 17.3218 76.7898 17.0532C77.2594 16.8818 77.7475 16.8281 78.2449 16.8429C79.1499 16.8698 79.9983 17.0949 80.7727 17.5719C80.9496 17.6812 81.1173 17.8062 81.3034 17.9322C80.9681 18.4185 80.6439 18.8872 80.3133 19.3661C80.2447 19.3225 80.1873 19.2882 80.1317 19.2521C79.663 18.9492 79.1721 18.6973 78.621 18.5806C78.3042 18.5139 77.9856 18.488 77.6669 18.5593C77.5539 18.5843 77.4409 18.6232 77.3372 18.6732C76.8138 18.9224 76.8148 19.6699 77.2946 19.919C77.5011 20.0265 77.7188 20.1191 77.9402 20.1886C78.4163 20.3358 78.9007 20.4572 79.3787 20.6008C79.7751 20.7193 80.1567 20.8759 80.5096 21.0954C81.0191 21.4112 81.3766 21.8419 81.497 22.4403C81.6082 22.9887 81.5813 23.5315 81.3812 24.0585C81.1432 24.6856 80.6949 25.1144 80.0956 25.3951C79.6602 25.5998 79.1962 25.7008 78.7192 25.7248C77.2881 25.798 76.0043 25.4016 74.8817 24.5031C74.8242 24.4577 74.7705 24.4068 74.7075 24.3521Z" fill="#A5A8B6"/>
<path d="M61.6307 21.1899C62.632 22.658 63.6277 24.1178 64.6373 25.598C64.5743 25.6063 64.5345 25.6156 64.4956 25.6156C63.8537 25.6156 63.2127 25.6128 62.5708 25.6193C62.456 25.6202 62.3948 25.5748 62.3356 25.4841C61.7641 24.606 61.1889 23.7306 60.6155 22.8544C60.5757 22.7933 60.534 22.7331 60.4821 22.6562C60.4367 22.7201 60.4015 22.7683 60.3682 22.8174C59.7883 23.6964 59.2057 24.5754 58.6314 25.4581C58.5555 25.5748 58.4768 25.6211 58.335 25.6193C57.7496 25.611 57.1633 25.6156 56.577 25.6156C56.5223 25.6156 56.4668 25.6156 56.4186 25.6156C56.4093 25.6008 56.4056 25.5952 56.4038 25.5897C56.4019 25.5841 56.4001 25.5776 56.4019 25.573C56.4084 25.5563 56.4149 25.5387 56.4251 25.5239C57.4023 24.0947 58.3804 22.6664 59.3576 21.2372C59.3613 21.2325 59.3604 21.2251 59.3678 21.1973C58.4221 19.807 57.4671 18.4046 56.4983 16.981C56.5779 16.9754 56.6242 16.9689 56.6715 16.9689C57.3004 16.9689 57.9293 16.9726 58.5592 16.9652C58.6833 16.9634 58.7454 17.0115 58.8084 17.1097C59.3382 17.9341 59.8726 18.7548 60.4052 19.5764C60.4414 19.6319 60.4793 19.6857 60.5294 19.7579C60.5784 19.6884 60.6173 19.6356 60.6535 19.581C61.1898 18.7613 61.727 17.9424 62.2578 17.119C62.33 17.0078 62.405 16.9634 62.5393 16.9652C63.1247 16.9726 63.7111 16.968 64.2974 16.968H64.5215C63.5471 18.3908 62.5958 19.7811 61.6307 21.1899Z" fill="#A5A8B6"/>
<path d="M84.8409 6.19289C84.4416 6.65231 84.0471 7.10803 83.6404 7.57672C83.5774 7.52485 83.5219 7.47947 83.4663 7.43315C83.0708 7.0997 82.641 6.82738 82.1352 6.69585C80.7134 6.32627 79.3713 7.10618 79.01 8.52985C78.7979 9.36533 78.8859 10.1758 79.362 10.9094C79.8993 11.7375 80.6782 12.0987 81.6619 12.0357C82.2344 11.9987 82.7392 11.7921 83.193 11.4494C83.3598 11.3235 83.5191 11.1873 83.7034 11.0391C84.0989 11.4374 84.4963 11.8375 84.8872 12.2312C84.8825 12.258 84.8844 12.2729 84.8779 12.2803C84.2953 12.9157 83.6173 13.4066 82.7707 13.6197C81.5119 13.9364 80.2809 13.8762 79.1323 13.2232C77.8828 12.5118 77.1723 11.4161 76.9686 9.9989C76.8352 9.068 76.9519 8.16397 77.3743 7.31737C78.0486 5.9641 79.148 5.16752 80.6356 4.92021C81.5906 4.76181 82.5289 4.84888 83.432 5.21568C83.9415 5.42224 84.3805 5.73717 84.7751 6.11694C84.7964 6.13731 84.8149 6.16232 84.8409 6.19289Z" fill="#A5A8B6"/>
<path d="M44.9838 8.57148V10.2851C44.9014 10.2888 44.8245 10.2962 44.7476 10.2962C43.5388 10.2962 42.3301 10.2962 41.1213 10.2962C41.0426 10.2962 40.9638 10.2962 40.8657 10.2962V13.6326H38.9872C38.9511 13.4992 38.9437 5.21934 38.9816 5.00723H46.2398C46.2028 5.06836 46.1768 5.1156 46.1472 5.15913C45.8202 5.63708 45.4905 6.11318 45.1672 6.59391C45.1014 6.6921 45.0311 6.72915 44.9116 6.72915C43.6407 6.72452 42.3708 6.72637 41.1 6.72637C41.0278 6.72637 40.9555 6.72637 40.8749 6.72637V8.57056L44.9838 8.57148Z" fill="#A5A8B6"/>
<path d="M67.5475 5.01096V6.74215C67.1121 6.77086 66.6777 6.75141 66.2433 6.75511C65.8126 6.75882 65.3819 6.75511 64.9271 6.75511C64.9178 7.2238 64.9243 7.67674 64.9233 8.13061C64.9224 8.58633 64.9233 9.04205 64.9233 9.4987V13.6132C64.7705 13.6539 63.433 13.6678 63.0273 13.6354C63.0088 13.4325 63.0217 13.226 63.019 13.0194C63.0171 12.8101 63.019 12.6007 63.019 12.3914V6.75882H60.4013V5.02856C60.5301 4.99151 67.1232 4.97299 67.5493 5.01189L67.5475 5.01096Z" fill="#A5A8B6"/>
<path d="M47.1771 13.6298V5.00723H49.0453V13.6159C48.9221 13.653 47.492 13.6668 47.1771 13.6298Z" fill="#A5A8B6"/>
</svg>
